<?xml version="1.0" encoding="UTF-8"?>
<svg version="1.1" xmlns="http://www.w3.org/2000/svg" width="494" height="505">
<path d="M0 0 C1.00023193 0.00523682 2.00046387 0.01047363 3.03100586 0.01586914 C4.1105957 0.0190918 5.19018555 0.02231445 6.30249023 0.02563477 C8.00695312 0.03820312 8.00695312 0.03820312 9.74584961 0.05102539 C11.45611328 0.05779297 11.45611328 0.05779297 13.20092773 0.06469727 C16.02842379 0.07652779 18.85589306 0.09446389 21.68334961 0.11352539 C21.68334961 5.72352539 21.68334961 11.33352539 21.68334961 17.11352539 C24.04918213 17.04544678 26.41501465 16.97736816 28.85253906 16.90722656 C36.70275789 16.69102654 44.55311463 16.54791839 52.40552998 16.43996716 C57.1632416 16.37234626 61.91788354 16.28078525 66.67382812 16.1328125 C71.2712339 15.99068127 75.86570506 15.91366022 80.46513939 15.88012123 C82.21211131 15.85625088 83.95893696 15.809629 85.70464516 15.73903465 C98.96978396 15.2243525 98.96978396 15.2243525 103.46493149 18.35385513 C106.67884415 21.34860117 109.16336816 24.75284463 111.54709435 28.42510414 C113.39832048 31.17593807 115.54279518 33.64563014 117.68334961 36.17602539 C119.02450584 37.81549027 120.35880826 39.46060817 121.68334961 41.11352539 C122.28147461 41.79286133 122.87959961 42.47219727 123.49584961 43.17211914 C124.68334961 45.11352539 124.68334961 45.11352539 124.60522461 47.06665039 C122.92248555 50.80290152 120.16674335 53.60481398 117.44189453 56.62524414 C115.39400072 59.03087779 114.05247082 61.31184109 112.76171875 64.1887207 C110.04640321 69.49643137 107.06161769 73.34182753 101.68334961 76.11352539 C89.64473785 79.24387788 75.99664943 77.68507972 63.70574951 77.2121582 C58.96699919 77.04728597 54.2268868 76.9751599 49.48608398 76.89477539 C40.21490821 76.72412093 30.94982093 76.45176571 21.68334961 76.11352539 C21.68334961 80.07352539 21.68334961 84.03352539 21.68334961 88.11352539 C27.95334961 88.11352539 34.22334961 88.11352539 40.68334961 88.11352539 C40.68334961 107.58352539 40.68334961 127.05352539 40.68334961 147.11352539 C34.41334961 147.11352539 28.14334961 147.11352539 21.68334961 147.11352539 C21.68334961 166.25352539 21.68334961 185.39352539 21.68334961 205.11352539 C37.85334961 205.11352539 54.02334961 205.11352539 70.68334961 205.11352539 C71.68334961 227.11352539 71.68334961 227.11352539 70.68334961 229.11352539 C30.09334961 229.11352539 -10.49665039 229.11352539 -52.31665039 229.11352539 C-52.31665039 206.11352539 -52.31665039 206.11352539 -51.31665039 205.11352539 C-49.812463 205.0204065 -48.30393683 204.99606511 -46.796875 205 C-45.3352594 205.00018127 -45.3352594 205.00018127 -43.84411621 205.00036621 C-42.81282593 205.00548218 -41.78153564 205.01059814 -40.71899414 205.01586914 C-39.30511414 205.01737976 -39.30511414 205.01737976 -37.8626709 205.0189209 C-34.3264851 205.02417062 -30.79031658 205.03813175 -27.25415039 205.05102539 C-19.35477539 205.07165039 -11.45540039 205.09227539 -3.31665039 205.11352539 C-3.31665039 185.97352539 -3.31665039 166.83352539 -3.31665039 147.11352539 C-11.66204102 147.3571582 -11.66204102 147.3571582 -20.17602539 147.60571289 C-23.72182974 147.6773345 -27.26673035 147.7447251 -30.81274414 147.79711914 C-36.43004745 147.88051379 -42.04412754 147.97863682 -47.65893555 148.16967773 C-52.19156039 148.32291534 -56.72072823 148.40571963 -61.25574493 148.44180679 C-62.97685428 148.46748443 -64.69779437 148.51763707 -66.4174118 148.59374619 C-79.50163034 149.14929002 -79.50163034 149.14929002 -84.21437645 145.74112892 C-87.70905068 142.4408525 -90.51801167 138.7256453 -93.19629478 134.74835014 C-94.63087374 132.65501016 -96.25095547 130.75987274 -97.92993164 128.85961914 C-98.83205398 127.75870275 -99.73197049 126.65597327 -100.62915039 125.55102539 C-101.10803711 124.98834961 -101.58692383 124.42567383 -102.08032227 123.84594727 C-104.0710802 121.37694647 -105.30663704 119.7724036 -105.35571289 116.54321289 C-104.0742737 113.54676486 -102.44417335 111.32162304 -100.37915039 108.80102539 C-99.31374023 107.47651367 -99.31374023 107.47651367 -98.22680664 106.12524414 C-97.59645508 105.46137695 -96.96610352 104.79750977 -96.31665039 104.11352539 C-95.65665039 104.11352539 -94.99665039 104.11352539 -94.31665039 104.11352539 C-94.04852539 103.35040039 -93.78040039 102.58727539 -93.50415039 101.80102539 C-92.3569431 99.20471416 -91.37018371 97.98849059 -89.31665039 96.11352539 C-88.98665039 95.45352539 -88.65665039 94.79352539 -88.31665039 94.11352539 C-87.65665039 94.11352539 -86.99665039 94.11352539 -86.31665039 94.11352539 C-86.02790039 93.49477539 -85.73915039 92.87602539 -85.44165039 92.23852539 C-84.31665039 90.11352539 -84.31665039 90.11352539 -82.31665039 88.11352539 C-79.78688504 87.92571789 -77.36757634 87.86160633 -74.83764648 87.88647461 C-74.06682236 87.88618256 -73.29599823 87.8858905 -72.5018158 87.8855896 C-69.94779294 87.88698565 -67.39405994 87.9025596 -64.84008789 87.91821289 C-63.07174845 87.92194205 -61.30340694 87.92478948 -59.5350647 87.92678833 C-54.87595944 87.93443247 -50.21697845 87.95408761 -45.55792236 87.97619629 C-40.80564048 87.99663795 -36.05333855 88.00578645 -31.30102539 88.01586914 C-21.97284573 88.0373328 -12.64475838 88.07147811 -3.31665039 88.11352539 C-3.31665039 84.15352539 -3.31665039 80.19352539 -3.31665039 76.11352539 C-9.25665039 76.11352539 -15.19665039 76.11352539 -21.31665039 76.11352539 C-21.31665039 56.64352539 -21.31665039 37.17352539 -21.31665039 17.11352539 C-15.37665039 17.11352539 -9.43665039 17.11352539 -3.31665039 17.11352539 C-3.35622196 11.89289264 -3.35622196 11.89289264 -3.40673828 6.67236328 C-3.41388984 4.8191878 -3.36693559 2.96603231 -3.31665039 1.11352539 C-2.31665039 0.11352539 -2.31665039 0.11352539 0 0 Z " fill="#040404" transform="translate(230.316650390625,125.886474609375)"/>
<path d="M0 0 C2.27515496 -0.00571295 4.55030706 -0.01268076 6.82545471 -0.02079773 C12.96625116 -0.0386451 19.10690404 -0.03757626 25.24771857 -0.03185534 C30.39371116 -0.0287503 35.5396767 -0.03487075 40.68566543 -0.04089409 C53.53100949 -0.05571036 66.37625356 -0.05214945 79.22159366 -0.04003078 C90.32961843 -0.03010997 101.43747634 -0.0430264 112.54547539 -0.06696498 C123.99987772 -0.0914606 135.45417329 -0.10054007 146.90860683 -0.09431225 C153.31981197 -0.09095914 159.73087946 -0.09324711 166.14206505 -0.11056328 C172.17760002 -0.12615508 178.21281946 -0.12194243 184.24834251 -0.10325813 C186.4475448 -0.09960543 188.64677112 -0.10258216 190.84595108 -0.11314392 C223.23989831 -0.25668789 251.60288819 8.21354097 275.1574707 31.29077148 C294.16724719 50.79494622 304.31605556 76.28289768 304.26774597 103.35797119 C304.27001153 104.30810522 304.27227708 105.25823925 304.27461129 106.23716521 C304.28089756 109.39339299 304.28012541 112.54957724 304.27929688 115.70581055 C304.28229172 117.98010818 304.285695 120.25440531 304.28947449 122.52870178 C304.29828547 128.68794683 304.30065138 134.84717798 304.30129027 141.00642872 C304.30200241 144.85965175 304.30413983 148.71287128 304.30678749 152.56609344 C304.31555482 165.32973988 304.3202084 178.09337479 304.31945702 190.85702351 C304.31939708 191.88698022 304.31939708 191.88698022 304.31933594 192.93774414 C304.31929506 193.62523002 304.31925418 194.3127159 304.31921206 195.02103469 C304.31880583 206.15601392 304.32837204 217.2909593 304.3424743 228.42592874 C304.35687377 239.88690296 304.36355983 251.34785385 304.36288053 262.80883861 C304.36262623 269.23218602 304.36543974 275.65549509 304.37605858 282.07883453 C304.38577876 288.12322791 304.38579194 294.16754658 304.37854195 300.21194267 C304.37750098 302.42172544 304.37982979 304.63151295 304.3859024 306.84128761 C304.42344105 321.45565131 304.30610112 335.63871426 299.3840332 349.59155273 C299.12235352 350.35201904 298.86067383 351.11248535 298.59106445 351.89599609 C296.38322409 358.10818808 293.64574065 363.81473826 290.1340332 369.40405273 C289.66223633 370.16717773 289.19043945 370.93030273 288.7043457 371.71655273 C282.93960896 380.69084561 276.50564175 388.75945434 268.1340332 395.40405273 C266.84239258 396.4675293 266.84239258 396.4675293 265.5246582 397.55249023 C256.17293686 404.95804254 245.2046758 411.48033936 233.61633205 414.69672585 C231.81556722 415.20985076 230.0305158 415.77917376 228.25769901 416.38181114 C216.32947374 420.10998251 204.69895387 419.98354149 192.29003906 419.95336914 C189.90975306 419.96207884 187.52947266 419.97245025 185.14920044 419.98434448 C178.72106668 420.0109868 172.29316911 420.01229688 165.86499095 420.00721788 C161.8376234 420.00463756 157.81029083 420.00992199 153.78293037 420.01719284 C153.11135112 420.01838322 152.43977187 420.0195736 151.74784173 420.02080005 C150.38284583 420.02322394 149.01784993 420.02565221 147.65285403 420.0280848 C134.88804651 420.04977357 122.12334499 420.04554151 109.3585316 420.03331511 C97.73123267 420.02299238 86.10426966 420.04545709 74.47703712 420.08351155 C62.48699289 420.1224469 50.49710681 420.13874867 38.50699908 420.13126504 C31.79608001 420.12746651 25.08548837 420.13270664 18.37461662 420.16069412 C12.05497135 420.18606624 5.7359916 420.18176244 -0.58364487 420.15587234 C-2.88521372 420.15118739 -5.186831 420.15644014 -7.48834419 420.17311859 C-38.85280762 420.38377567 -64.54512429 410.41712262 -87.40893555 388.89233398 C-112.9810041 362.99502449 -116.64126888 332.97414171 -116.57486558 298.5441339 C-116.57168675 294.12345122 -116.59695512 289.70291978 -116.61882019 285.28230286 C-116.65608949 276.89685922 -116.66839368 268.51157716 -116.67144459 260.12605888 C-116.67609017 250.72834191 -116.70904595 241.33079545 -116.74434245 231.9331516 C-116.81967652 211.58511404 -116.85505988 191.23715515 -116.86473107 170.88898826 C-116.86601771 168.30167676 -116.86758835 165.71436553 -116.86919212 163.12705421 C-116.87183789 158.68830553 -116.87368719 154.24955712 -116.87493932 149.81080782 C-116.87545871 148.13617211 -116.87614175 146.46153644 -116.87700713 144.78690088 C-116.88262437 132.91543625 -116.86192732 121.04599649 -116.60351562 109.17675781 C-116.56916873 107.48839852 -116.54152643 105.7998935 -116.51953125 104.11132812 C-116.38901955 94.15078626 -115.9670021 84.97222876 -112.8659668 75.40405273 C-112.5764917 74.48785156 -112.2870166 73.57165039 -111.98876953 72.62768555 C-107.86610221 60.04230883 -101.7177214 48.26359723 -92.8659668 38.40405273 C-92.15569336 37.57518555 -91.44541992 36.74631836 -90.71362305 35.89233398 C-83.65560667 27.79236089 -76.39251608 20.50104407 -66.8659668 15.40405273 C-66.25575684 15.07421387 -65.64554688 14.744375 -65.0168457 14.40454102 C-56.19937585 9.70571248 -47.58060472 5.89744282 -37.8659668 3.40405273 C-36.84097674 3.13779555 -35.81598669 2.87153837 -34.75993633 2.59721279 C-23.18890634 -0.06041873 -11.82703122 -0.02699028 0 0 Z M-60.8659668 17.40405273 C-61.80956055 17.90936523 -62.7531543 18.41467773 -63.7253418 18.93530273 C-70.24107611 22.57763869 -75.49906157 27.25182372 -80.8659668 32.40405273 C-81.64069336 33.11561523 -82.41541992 33.82717773 -83.21362305 34.56030273 C-89.17778807 40.20733376 -93.62161224 46.39088611 -97.8659668 53.40405273 C-98.48600586 54.42499023 -99.10604492 55.44592773 -99.74487305 56.49780273 C-105.87640519 67.19818712 -109.66629282 78.29363137 -110.98651123 90.55052185 C-111.06992004 91.32165013 -111.15332885 92.0927784 -111.2392652 92.88727421 C-112.20566277 102.70225531 -112.14602011 112.52047803 -112.12475586 122.37304688 C-112.12747311 124.51558043 -112.13103812 126.65811304 -112.13537598 128.80064392 C-112.14441447 134.56502216 -112.14099148 140.32932799 -112.13461781 146.09370732 C-112.12951386 152.1582121 -112.13426131 158.22271114 -112.13739014 164.28721619 C-112.14101679 174.46557719 -112.13626467 184.64390906 -112.12670898 194.82226562 C-112.11582404 206.55115946 -112.1193556 218.27998375 -112.1303618 230.00887591 C-112.13946836 240.12237802 -112.14070361 250.23585933 -112.13548446 260.34936422 C-112.13238361 266.37082554 -112.13190319 272.39225429 -112.13855743 278.41371346 C-112.14437963 284.0765702 -112.14024577 289.73933818 -112.12876892 295.40218544 C-112.12614833 297.46719466 -112.12684227 299.53221148 -112.13129425 301.59721756 C-112.18842056 330.81162063 -108.56504688 359.69260207 -87.4128418 381.98999023 C-85.06069938 384.21947492 -82.67825642 386.39328348 -80.2409668 388.52905273 C-76.10578606 392.15615666 -76.10578606 392.15615666 -74.3581543 393.96264648 C-69.41206885 398.74040965 -62.84425327 402.08278247 -56.8659668 405.40405273 C-55.7934668 406.04858398 -54.7209668 406.69311523 -53.6159668 407.35717773 C-50.03549379 409.39871686 -46.42504365 410.77177044 -42.4909668 412.02905273 C-41.26635742 412.43381836 -40.04174805 412.83858398 -38.7800293 413.25561523 C-24.53225901 417.00240768 -9.54253917 416.69418633 5.06542969 416.6628418 C7.21604531 416.66555848 9.36665999 416.66912318 11.51727295 416.67346191 C17.30863605 416.68250821 23.09992716 416.67907381 28.89129138 416.67270374 C34.98336132 416.66760261 41.07542552 416.6723466 47.16749573 416.67547607 C57.39471531 416.67910409 67.62190592 416.67434758 77.84912109 416.66479492 C89.63193761 416.65391557 101.41468486 416.65743693 113.19749969 416.66844773 C123.35685674 416.67755739 133.51619308 416.67878788 143.6755529 416.67357039 C149.72444769 416.67047048 155.77331005 416.66998638 161.82220268 416.67664337 C167.51295549 416.68246989 173.20362002 416.67832402 178.8943634 416.66685486 C180.96862708 416.66423628 183.04289834 416.66492464 185.11715889 416.66938019 C208.44818211 417.02804724 208.44818211 417.02804724 230.9465332 411.71655273 C231.63465088 411.45890137 232.32276855 411.20125 233.03173828 410.93579102 C258.64147357 401.02138927 279.56180584 382.32176418 291.1340332 357.40405273 C292.37354041 354.51834526 293.50391929 351.60743948 294.5715332 348.65405273 C294.80654541 348.00597656 295.04155762 347.35790039 295.28369141 346.69018555 C299.64146474 333.74118884 299.56295511 320.40696159 299.7590332 306.90405273 C299.7773822 305.80463348 299.7957312 304.70521423 299.81463623 303.57247925 C300.40783372 267.56564461 300.29954143 231.54965176 300.14717865 195.53965759 C300.13357583 192.29495435 300.12076069 189.05024853 300.10797119 185.80554199 C300.05192776 171.99238542 299.97274495 158.17955363 299.86956787 144.3666687 C299.83638217 139.87850227 299.80950834 135.39036803 299.78814697 130.90213013 C299.76233292 125.59710835 299.72200089 120.29238232 299.67097282 114.98754501 C299.65445988 113.03773395 299.64274551 111.08787492 299.63638496 109.1380043 C299.58553183 95.03600695 298.77897375 81.63045101 293.1965332 68.46655273 C292.93130859 67.84014893 292.66608398 67.21374512 292.39282227 66.56835938 C291.65418286 64.84074388 290.89504155 63.12193217 290.1340332 61.40405273 C289.82852539 60.66928711 289.52301758 59.93452148 289.20825195 59.17749023 C287.07294238 54.42111345 284.0506847 50.22362587 281.0715332 45.96655273 C280.41749512 45.02380493 280.41749512 45.02380493 279.75024414 44.06201172 C277.1414898 40.35220383 277.1414898 40.35220383 273.1340332 38.40405273 C272.99739258 37.7969043 272.86075195 37.18975586 272.7199707 36.56420898 C271.89573383 33.52552236 270.27706811 32.66284982 267.7590332 30.84155273 C263.33306059 27.60497016 263.33306059 27.60497016 261.69433594 25.95068359 C256.96384299 21.26164075 251.12994118 18.17423541 245.1965332 15.27905273 C244.53202148 14.94518555 243.86750977 14.61131836 243.18286133 14.26733398 C225.39764101 5.46960134 208.28877192 3.80698648 188.765625 3.87060547 C186.46061657 3.86353256 184.15561279 3.85478184 181.85061646 3.84449768 C175.63759128 3.82214627 169.42482256 3.82491025 163.21177268 3.83381915 C158.00353956 3.83895865 152.7953534 3.83161245 147.58712512 3.82434708 C134.58806625 3.80642645 121.58914908 3.81271213 108.59009544 3.83051688 C97.34959753 3.84520214 86.10936724 3.83059107 74.86890378 3.80174672 C63.27430913 3.77221957 51.67984829 3.76192503 40.08521777 3.77092892 C33.59688665 3.77583159 27.10876322 3.77378766 20.6204586 3.7531414 C14.51424679 3.73463818 8.40852762 3.74092051 2.30234146 3.76534081 C0.07733842 3.77030275 -2.14770312 3.76698109 -4.37267494 3.75419235 C-25.17373104 3.64420395 -42.70103403 7.12680323 -60.8659668 17.40405273 Z " fill="#DDDFE2" transform="translate(145.865966796875,30.595947265625)"/>
<path d="M0 0 C0 0.99 0 1.98 0 3 C3.3 3 6.6 3 10 3 C10 3.33 10 3.66 10 4 C9.06655762 4.00616333 9.06655762 4.00616333 8.11425781 4.01245117 C-13.34163025 4.25850493 -31.24815571 7.39069112 -50 18 C-51.41539063 18.75796875 -51.41539063 18.75796875 -52.859375 19.53125 C-59.37343343 23.17264912 -64.63150381 27.8522479 -70 33 C-70.70125 33.63808594 -71.4025 34.27617188 -72.125 34.93359375 C-87.12119043 49.02181171 -96.92757424 69.7569544 -99.11679077 90.15255737 C-99.20010883 90.92380632 -99.28342688 91.69505527 -99.36926973 92.4896754 C-100.33397675 102.26909428 -100.30887197 112.05393753 -100.31884766 121.87158203 C-100.32817001 124.00229259 -100.33834201 126.13299956 -100.34928894 128.26370239 C-100.37634323 133.98971905 -100.39166456 139.71571146 -100.40471697 145.44177485 C-100.42045628 151.44752914 -100.44721145 157.45323467 -100.4727478 163.45895386 C-100.51934584 174.80561182 -100.55618119 186.15227916 -100.58942068 197.49898326 C-100.62777695 210.42784285 -100.67715129 223.35665324 -100.72740483 236.2854712 C-100.83044213 262.85694423 -100.91979335 289.42844893 -101 316 C-101.33 316 -101.66 316 -102 316 C-102.33 288.94 -102.66 261.88 -103 234 C-103.33 234 -103.66 234 -104 234 C-104.33 212.22 -104.66 190.44 -105 168 C-105.33 168 -105.66 168 -106 168 C-106.10703866 148.3477012 -106.10642395 128.69436595 -105.73654175 109.0446167 C-105.70416421 107.24086362 -105.67650139 105.43701898 -105.65383911 103.63311768 C-105.52315001 93.69912573 -105.09273864 84.54257684 -102 75 C-101.7105249 74.08379883 -101.4210498 73.16759766 -101.12280273 72.22363281 C-97.00013541 59.63825609 -90.8517546 47.8595445 -82 38 C-81.28972656 37.17113281 -80.57945313 36.34226563 -79.84765625 35.48828125 C-72.78963987 27.38830815 -65.52654928 20.09699134 -56 15 C-55.38979004 14.67016113 -54.77958008 14.34032227 -54.15087891 14.00048828 C-37.29901699 5.02013325 -19.33599834 -0.97220103 0 0 Z " fill="#E4E6E9" transform="translate(135,31)"/>
<path d="M0 0 C69.63 0 139.26 0 211 0 C211 0.33 211 0.66 211 1 C199.45 1 187.9 1 176 1 C176 1.99 176 2.98 176 4 C154.52899756 4.02338625 133.05799723 4.04100729 111.58698463 4.05181217 C101.61706745 4.05696297 91.64715819 4.06398246 81.67724609 4.07543945 C72.98494918 4.08542348 64.292658 4.09186228 55.60035551 4.09408849 C51.00017102 4.09538929 46.40000297 4.0984351 41.79982376 4.10573006 C37.46444857 4.11254898 33.12909647 4.11460506 28.79371643 4.11310768 C27.20793405 4.11338138 25.62215086 4.11535151 24.03637314 4.11920547 C15.975178 4.13782557 8.00451114 4.06648925 0 3 C0 2.01 0 1.02 0 0 Z " fill="#CCCED4" transform="translate(135,31)"/>
<path d="M0 0 C0.33 0 0.66 0 1 0 C1.33 8.91 1.66 17.82 2 27 C2.33 27 2.66 27 3 27 C3.00423194 27.70752789 3.00846388 28.41505577 3.01282406 29.1440239 C3.11609212 46.35327009 3.22472414 63.56247403 3.33933926 80.77164841 C3.39463647 89.09384511 3.44811273 97.4160461 3.49731445 105.73828125 C3.54019918 112.99124665 3.586488 120.24418093 3.63687855 127.49709821 C3.66344492 131.33806961 3.68829713 135.17903498 3.70907402 139.02004242 C3.72868077 142.63478894 3.75283658 146.24947643 3.78049088 149.86417007 C3.79430001 151.8243129 3.80327722 153.7844879 3.81211853 155.74465942 C3.82190735 156.91131134 3.83169617 158.07796326 3.84178162 159.27996826 C3.84823417 160.29394054 3.85468672 161.30791283 3.8613348 162.35261154 C3.98613531 164.73529618 4.37274101 166.71228334 5 169 C5.28608563 175.04145544 5.31729911 181.072154 4 187 C3.01 186.67 2.02 186.34 1 186 C-0.01139404 181.82500672 -0.13829109 177.79793557 -0.12025452 173.52726746 C-0.12110894 172.78387235 -0.12196337 172.04047725 -0.12284368 171.27455503 C-0.12448809 168.7887249 -0.11899414 166.30296256 -0.11352539 163.81713867 C-0.11324327 162.03317262 -0.11340174 160.24920646 -0.1139679 158.46524048 C-0.11425489 153.62477167 -0.10837387 148.78432763 -0.10139394 143.94386458 C-0.09514421 138.88431534 -0.09455532 133.82476553 -0.09336853 128.76521301 C-0.09026 119.1853549 -0.08205303 109.60550818 -0.07201904 100.02565509 C-0.06084309 89.11885582 -0.05534371 78.212056 -0.05032361 67.30525243 C-0.03987004 44.87016196 -0.02227982 22.43508162 0 0 Z " fill="#D7D8DD" transform="translate(30,182)"/>
<path d="M0 0 C0 0.99 0 1.98 0 3 C3.3 3 6.6 3 10 3 C10 3.33 10 3.66 10 4 C9.06655762 4.00616333 9.06655762 4.00616333 8.11425781 4.01245117 C-13.34163025 4.25850493 -31.24815571 7.39069112 -50 18 C-51.41539063 18.75796875 -51.41539063 18.75796875 -52.859375 19.53125 C-59.37004927 23.17075736 -64.64252643 27.84452954 -70 33 C-71.08667969 34.02673828 -71.08667969 34.02673828 -72.1953125 35.07421875 C-76.1685463 38.91904005 -79.55572043 42.86525254 -82.67578125 47.43359375 C-84 49 -84 49 -87 50 C-87 42.83739205 -83.06890007 38.55821142 -78.375 33.625 C-77.57703003 32.77627319 -77.57703003 32.77627319 -76.76293945 31.91040039 C-70.3938258 25.20853617 -64.17465207 19.42242219 -56 15 C-55.38890381 14.6692749 -54.77780762 14.3385498 -54.14819336 13.99780273 C-37.29038872 5.02556057 -19.33974107 -0.97238922 0 0 Z " fill="#DFDFE4" transform="translate(135,31)"/>
<path d="M0 0 C5.96168616 -0.09154923 11.53336687 0.44544731 17.37207031 1.64868164 C18.22526855 1.82286621 19.0784668 1.99705078 19.95751953 2.17651367 C34.00442439 5.25782063 50.02246967 11.06496758 59.74707031 22.08618164 C56.49309393 23.17084044 55.85274141 23.18692583 52.74707031 22.08618164 C50.86762548 21.0473206 49.01580493 19.95784332 47.18457031 18.83618164 C27.00411724 6.97956053 7.05714138 4.33286452 -16.06542969 4.27368164 C-18.2340738 4.25046067 -20.40269589 4.22508008 -22.57128906 4.19750977 C-27.79858537 4.13562941 -33.02530095 4.102531 -38.25292969 4.08618164 C-38.25292969 3.09618164 -38.25292969 2.10618164 -38.25292969 1.08618164 C-33.46986817 0.9416713 -28.68674795 0.79935052 -23.90356445 0.65893555 C-22.28115135 0.61101414 -20.65875488 0.5625258 -19.03637695 0.51342773 C-12.69135228 0.32168786 -6.34564978 0.16811876 0 0 Z " fill="#DCDDE3" transform="translate(349.2529296875,30.913818359375)"/>
<path d="M0 0 C0.33 0 0.66 0 1 0 C1.33 15.84 1.66 31.68 2 48 C2.99 48 3.98 48 5 48 C3.72608422 64.12162379 -0.32707395 79.1959711 -9 93 C-9.70769531 94.1446875 -9.70769531 94.1446875 -10.4296875 95.3125 C-14.20967226 101.19701681 -18.56090907 106.60323717 -23 112 C-23.66 110.68 -24.32 109.36 -25 108 C-24.01 107.01 -24.01 107.01 -23 106 C-23.66 105.67 -24.32 105.34 -25 105 C-24.5153125 104.44054687 -24.030625 103.88109375 -23.53125 103.3046875 C-15.64994421 93.87743327 -9.77988601 83.89890463 -5.625 72.375 C-5.3863623 71.71943115 -5.14772461 71.0638623 -4.90185547 70.38842773 C-1.48880654 60.33066859 -0.69926547 50.0047787 -0.5859375 39.453125 C-0.56657135 38.31591003 -0.5472052 37.17869507 -0.5272522 36.00701904 C-0.46809804 32.42141919 -0.42133048 28.83578609 -0.375 25.25 C-0.33676104 22.79946618 -0.297706 20.34894495 -0.2578125 17.8984375 C-0.16245036 11.93240453 -0.07722082 5.96629392 0 0 Z " fill="#E4E5E8" transform="translate(445,307)"/>
<path d="M0 0 C0.33 0 0.66 0 1 0 C1.25394531 1.0621875 1.50789063 2.124375 1.76953125 3.21875 C5.41143134 18.26339298 10.28119984 31.46705953 19.6796875 44.0390625 C21 46 21 46 21 48 C20.34 48 19.68 48 19 48 C18.67 48.99 18.34 49.98 18 51 C8.93442526 40.97000242 2.72259247 28.97351257 -1 16 C-1.4125 14.906875 -1.825 13.81375 -2.25 12.6875 C-3.06135829 9.78013278 -3.03854062 8.76944166 -2 6 C-1.649375 4.9275 -1.29875 3.855 -0.9375 2.75 C-0.4734375 1.38875 -0.4734375 1.38875 0 0 Z " fill="#E5E5E9" transform="translate(35,362)"/>
<path d="M0 0 C0.33 0 0.66 0 1 0 C2.19368916 14.31992392 2.32671653 28.65322958 2.55224609 43.0144043 C2.60391525 46.22192093 2.66109713 49.42930497 2.71875 52.63671875 C2.73232544 53.6189592 2.74590088 54.60119965 2.7598877 55.61320496 C2.77660522 56.52548355 2.79332275 57.43776215 2.81054688 58.37768555 C2.82307495 59.17627487 2.83560303 59.9748642 2.84851074 60.7976532 C2.9986615 62.98054093 3.44459868 64.88964227 4 67 C4.28608563 73.04145544 4.31729911 79.072154 3 85 C2.01 84.67 1.02 84.34 0 84 C-0.89796845 80.1584428 -1.12881401 76.59762084 -1.1328125 72.65625 C-1.13474609 71.3676709 -1.13667969 70.0790918 -1.13867188 68.75146484 C-1.13454034 67.33430859 -1.12997036 65.91715356 -1.125 64.5 C-1.12411377 63.77999817 -1.12322754 63.05999634 -1.12231445 62.31817627 C-1.0928441 41.54101308 -0.5308784 20.76920564 0 0 Z " fill="#DDDEE3" transform="translate(31,284)"/>
<path d="M0 0 C0.99 0 1.98 0 3 0 C3 19.47 3 38.94 3 59 C-2.94 59 -8.88 59 -15 59 C-15 58.67 -15 58.34 -15 58 C-10.05 58 -5.1 58 0 58 C0 38.86 0 19.72 0 0 Z " fill="#404040" transform="translate(268,214)"/>
<path d="M0 0 C0.33 0 0.66 0 1 0 C1.33 15.84 1.66 31.68 2 48 C2.99 48 3.98 48 5 48 C4.7161296 50.54275398 4.42316578 53.08391554 4.125 55.625 C4.00705078 56.69427734 4.00705078 56.69427734 3.88671875 57.78515625 C3.37424854 62.08202185 2.53115573 65.921207 1 70 C0.34 69.01 -0.32 68.02 -1 67 C-1.99 68.65 -2.98 70.3 -4 72 C-5.45778935 69.0844213 -4.46714093 67.35587754 -3.625 64.25 C-1.42392658 56.06282972 -0.8112343 48.48964362 -0.68359375 40.0390625 C-0.66281265 38.89335785 -0.64203156 37.7476532 -0.62062073 36.56723022 C-0.55541782 32.91987914 -0.49637648 29.27245816 -0.4375 25.625 C-0.39428695 23.14712829 -0.35067178 20.66926356 -0.30664062 18.19140625 C-0.19976648 12.1276773 -0.09794651 6.06387937 0 0 Z " fill="#EDEEF0" transform="translate(445,307)"/>
<path d="M0 0 C0.75042068 0.0028299 1.50084137 0.00565979 2.27400208 0.00857544 C4.668508 0.01976188 7.06263856 0.04486322 9.45703125 0.0703125 C11.0813748 0.08034431 12.70572422 0.08946981 14.33007812 0.09765625 C18.31004025 0.11969613 22.28972213 0.1542151 26.26953125 0.1953125 C26.76453125 2.1753125 26.76453125 2.1753125 27.26953125 4.1953125 C15.05953125 4.1953125 2.84953125 4.1953125 -9.73046875 4.1953125 C-10.06046875 3.5353125 -10.39046875 2.8753125 -10.73046875 2.1953125 C-7.03888557 -0.26574295 -4.26423321 -0.06044543 0 0 Z " fill="#D5D8DF" transform="translate(228.73046875,30.8046875)"/>
<path d="M0 0 C-0.33 1.32 -0.66 2.64 -1 4 C-5.54812768 3.56684498 -9.93322913 3.07630614 -14.375 2 C-19.53319372 0.77664078 -24.72177691 0.37490183 -30 0 C-30 -0.66 -30 -1.32 -30 -2 C-21.62771436 -6.18614282 -8.56580174 -2.18701321 0 0 Z " fill="#D9DADE" transform="translate(377,35)"/>
<path d="M0 0 C7.92 0 15.84 0 24 0 C24 10 24 10 23 14 C22.34 14 21.68 14 21 14 C21 9.71 21 5.42 21 1 C14.07 1 7.14 1 0 1 C0 0.67 0 0.34 0 0 Z " fill="#4B4B4B" transform="translate(228,126)"/>
<path d="M0 0 C3.96 0 7.92 0 12 0 C12 0.99 12 1.98 12 3 C15.3 3 18.6 3 22 3 C22 3.33 22 3.66 22 4 C19.85423363 4.02685938 17.70837355 4.04633088 15.5625 4.0625 C14.36753906 4.07410156 13.17257813 4.08570313 11.94140625 4.09765625 C9 4 9 4 8 3 C5.32941149 2.85884839 2.67567762 2.95752893 0 3 C0 2.01 0 1.02 0 0 Z " fill="#DFE0E6" transform="translate(123,31)"/>
<path d="M0 0 C6.93 0.495 6.93 0.495 14 1 C14 1.33 14 1.66 14 2 C13.195625 2.12375 12.39125 2.2475 11.5625 2.375 C10.2940625 2.684375 10.2940625 2.684375 9 3 C8.67 3.66 8.34 4.32 8 5 C4.37 4.67 0.74 4.34 -3 4 C-2.01 3.67 -1.02 3.34 0 3 C0 2.01 0 1.02 0 0 Z " fill="#DCDDE1" transform="translate(115,445)"/>
<path d="M0 0 C1.28132813 0.00902344 2.56265625 0.01804687 3.8828125 0.02734375 C4.87023437 0.03894531 5.85765625 0.05054687 6.875 0.0625 C6.545 1.0525 6.215 2.0425 5.875 3.0625 C0.925 3.0625 -4.025 3.0625 -9.125 3.0625 C-9.125 2.4025 -9.125 1.7425 -9.125 1.0625 C-6.12186252 -0.43906874 -3.33432478 -0.03031204 0 0 Z " fill="#CFD1D6" transform="translate(356.125,31.9375)"/>
<path d="M0 0 C1.4540625 0.0309375 1.4540625 0.0309375 2.9375 0.0625 C2.9375 0.7225 2.9375 1.3825 2.9375 2.0625 C6.2375 1.7325 9.5375 1.4025 12.9375 1.0625 C12.6075 1.7225 12.2775 2.3825 11.9375 3.0625 C2.5325 3.5575 2.5325 3.5575 -7.0625 4.0625 C-7.0625 3.4025 -7.0625 2.7425 -7.0625 2.0625 C-6.0725 1.7325 -5.0825 1.4025 -4.0625 1.0625 C-3.0625 0.0625 -3.0625 0.0625 0 0 Z " fill="#CED0D4" transform="translate(120.0625,31.9375)"/>
<path d="M0 0 C0.99 0.33 1.98 0.66 3 1 C3.27599507 2.76696843 3.51996915 4.53896215 3.75 6.3125 C3.88921875 7.29863281 4.0284375 8.28476563 4.171875 9.30078125 C4.11515625 10.19152344 4.0584375 11.08226562 4 12 C2.68 12.99 1.36 13.98 0 15 C0 10.05 0 5.1 0 0 Z " fill="#585858" transform="translate(227,127)"/>
<path d="M0 0 C7.625 0.875 7.625 0.875 11 2 C11 2.99 11 3.98 11 5 C7.7 4.67 4.4 4.34 1 4 C0.67 2.68 0.34 1.36 0 0 Z " fill="#D6D7DA" transform="translate(104,443)"/>
<path d="M0 0 C0.33 0 0.66 0 1 0 C1.33 1.65 1.66 3.3 2 5 C2.99 4.34 3.98 3.68 5 3 C4.34 5.97 3.68 8.94 3 12 C2.34 11.01 1.68 10.02 1 9 C-0.485 11.475 -0.485 11.475 -2 14 C-3.49341969 11.01316063 -2.40648676 9.04839022 -1.5625 5.875 C-1.27503906 4.77929688 -0.98757813 3.68359375 -0.69140625 2.5546875 C-0.46324219 1.71164062 -0.23507812 0.86859375 0 0 Z " fill="#EAEBEF" transform="translate(443,365)"/>
<path d="M0 0 C2.475 0.99 2.475 0.99 5 2 C5.33 4.64 5.66 7.28 6 10 C5.01 10.495 5.01 10.495 4 11 C4 10.34 4 9.68 4 9 C3.34 9 2.68 9 2 9 C1.34 6.03 0.68 3.06 0 0 Z " fill="#E3E3E7" transform="translate(38,384)"/>
<path d="M0 0 C-3 2 -3 2 -5 2 C-5 2.66 -5 3.32 -5 4 C-4.01 4.33 -3.02 4.66 -2 5 C-3.62600941 4.9129995 -5.25089678 4.8048219 -6.875 4.6875 C-7.77992188 4.62949219 -8.68484375 4.57148438 -9.6171875 4.51171875 C-12 4 -12 4 -14 1 C-4.58997722 -0.14806378 -4.58997722 -0.14806378 0 0 Z " fill="#E5E6EA" transform="translate(364,445)"/>
<path d="M0 0 C1.485 0.99 1.485 0.99 3 2 C3.6875 5.625 3.6875 5.625 4 9 C2.68 9.33 1.36 9.66 0 10 C0 6.7 0 3.4 0 0 Z " fill="#4F4F4F" transform="translate(227,203)"/>
<path d="M0 0 C0.66 0.66 1.32 1.32 2 2 C1.01 2.66 0.02 3.32 -1 4 C-1.72382467 6.05925139 -1.72382467 6.05925139 -2 8 C-3.32 8 -4.64 8 -6 8 C-4.6875 4.5625 -4.6875 4.5625 -3 1 C-2.01 0.67 -1.02 0.34 0 0 Z " fill="#D8DBDF" transform="translate(422,412)"/>
<path d="M0 0 C1.98 0 3.96 0 6 0 C5.01 0.33 4.02 0.66 3 1 C3 1.99 3 2.98 3 4 C4.32 4.33 5.64 4.66 7 5 C3.7 4.67 0.4 4.34 -3 4 C-2.01 3.67 -1.02 3.34 0 3 C0 2.01 0 1.02 0 0 Z " fill="#E9EAED" transform="translate(115,445)"/>
<path d="M0 0 C4.75 0.75 4.75 0.75 7 3 C4.69 3.66 2.38 4.32 0 5 C-0.66 4.34 -1.32 3.68 -2 3 C-1.34 2.01 -0.68 1.02 0 0 Z " fill="#E4E4E8" transform="translate(387,40)"/>
<path d="M0 0 C0.66 0.33 1.32 0.66 2 1 C2 2.32 2 3.64 2 5 C1.01 5.66 0.02 6.32 -1 7 C-1 6.34 -1 5.68 -1 5 C-1.99 4.67 -2.98 4.34 -4 4 C-2.68 2.68 -1.36 1.36 0 0 Z " fill="#E4E3E9" transform="translate(72,50)"/>
<path d="M0 0 C0.66 0 1.32 0 2 0 C2.33 1.98 2.66 3.96 3 6 C2.01 6.495 2.01 6.495 1 7 C1 6.34 1 5.68 1 5 C0.34 5 -0.32 5 -1 5 C-0.67 3.35 -0.34 1.7 0 0 Z " fill="#DCDDE1" transform="translate(41,388)"/>
<path d="M0 0 C1.32 0.66 2.64 1.32 4 2 C3.67 3.65 3.34 5.3 3 7 C1.68 6.34 0.36 5.68 -1 5 C-0.67 3.35 -0.34 1.7 0 0 Z " fill="#E4E5E9" transform="translate(400,46)"/>
<path d="M0 0 C3.63 0 7.26 0 11 0 C11 0.33 11 0.66 11 1 C7.04 1.66 3.08 2.32 -1 3 C-0.67 2.01 -0.34 1.02 0 0 Z " fill="#DFE1E5" transform="translate(346,31)"/>
</svg>
