<?xml version="1.0" encoding="UTF-8"?>
<svg version="1.1" xmlns="http://www.w3.org/2000/svg" width="200" height="200">
<path d="M0 0 C0.89975052 -0.0065712 1.79950104 -0.0131424 2.72651672 -0.01991272 C5.70366505 -0.03961802 8.6807629 -0.0513044 11.65795898 -0.0612793 C12.6776219 -0.06535482 13.69728481 -0.06943035 14.7478466 -0.07362938 C20.14862744 -0.09448189 25.54938295 -0.10878516 30.95019531 -0.11816406 C36.50935245 -0.12920519 42.06810676 -0.16358111 47.62712193 -0.20333576 C51.91760464 -0.22957538 56.20799262 -0.23786259 60.49854851 -0.24144554 C62.54651537 -0.24629531 64.59447846 -0.25786296 66.64236641 -0.27648354 C82.31738309 -0.41011019 94.27111024 0.65841732 105.99780273 12.0246582 C113.79565235 20.33465472 116.23308873 28.90968673 116.26855469 40.08544922 C116.27512589 40.98519974 116.28169708 41.88495026 116.28846741 42.81196594 C116.30817271 45.78911427 116.31985908 48.76621212 116.32983398 51.7434082 C116.33390951 52.76307112 116.33798504 53.78273403 116.34218407 54.83329582 C116.36303658 60.23407665 116.37733985 65.63483217 116.38671875 71.03564453 C116.39775988 76.59480167 116.4321358 82.15355598 116.47189045 87.71257114 C116.49813007 92.00305386 116.50641728 96.29344184 116.51000023 100.58399773 C116.51484999 102.63196459 116.52641765 104.67992768 116.54503822 106.72781563 C116.67314283 121.75507067 116.01285591 133.76535455 105.09155273 145.17700195 C96.39116415 153.13164295 86.97820906 156.31632344 75.36669922 156.35400391 C74.48645584 156.3605751 73.60621246 156.3671463 72.69929504 156.37391663 C69.78707793 156.39361967 66.8749124 156.40530789 63.96264648 156.4152832 C62.4662498 156.42139649 62.4662498 156.42139649 60.93962288 156.42763329 C55.65555149 156.44848498 50.37150596 156.46278852 45.08740234 156.47216797 C39.64930944 156.48320803 34.21162844 156.51758291 28.77368069 156.55733967 C24.57584411 156.58358389 20.37810433 156.59186691 16.18019295 156.59544945 C14.17688286 156.60029815 12.17357659 156.61186272 10.17034721 156.63048744 C-4.21349142 156.75586699 -16.45092881 155.92347323 -27.90844727 146.17700195 C-36.47516126 137.1861932 -40.05309325 127.68020121 -40.06958008 115.4362793 C-40.07454498 114.55442963 -40.07950989 113.67257996 -40.08462524 112.76400757 C-40.09922687 109.8469769 -40.10604682 106.93000067 -40.11157227 104.01293945 C-40.11732694 101.97994994 -40.12308463 99.94696044 -40.12884521 97.91397095 C-40.13935061 93.64861804 -40.14519578 89.38328395 -40.14868164 85.11791992 C-40.15415447 79.67083609 -40.17815859 74.22400371 -40.20665359 68.77699852 C-40.22534579 64.57491345 -40.23048915 60.37288804 -40.23201752 56.17076492 C-40.23503153 54.16385148 -40.24301747 52.15693877 -40.2562027 50.15006638 C-40.27339523 47.33121816 -40.27135053 44.51297219 -40.26489258 41.6940918 C-40.27410736 40.87606079 -40.28332214 40.05802979 -40.29281616 39.21520996 C-40.21104333 27.73196805 -36.01866465 18.74728276 -28.24829102 10.3918457 C-20.0056926 2.77280084 -10.96415643 0.03479443 0 0 Z " fill="#010100" transform="translate(57.908447265625,21.822998046875)"/>
<path d="M0 0 C0.99 0 1.98 0 3 0 C3.05402274 2.10388569 3.09280256 4.20816714 3.125 6.3125 C3.14820313 7.48425781 3.17140625 8.65601562 3.1953125 9.86328125 C3 13 3 13 1 16 C3.73919656 14.99562793 4.80379547 14.37175596 6.1875 11.75 C7.04585938 8.84478363 7.5816101 5.99846098 8 3 C8.66 3 9.32 3 10 3 C9.83594462 9.71135664 8.85033511 13.26796574 4 18 C1.29120665 19.35439668 -1.00933268 19.06501451 -4 19 C-3.67 19.515625 -3.34 20.03125 -3 20.5625 C-1.38662953 24.49509051 -1.30176843 28.01475781 -2.72265625 32.0546875 C-5.50035696 38.01493598 -9.51942928 42.34628619 -15 46 C-19.34497412 47.44832471 -23.46388456 47.65215717 -28 47 C-31.27928748 44.54053439 -33.72760732 41.9328501 -35 38 C-35.8854429 31.54891605 -33.83154984 27.05067934 -30 22 C-24.71660434 17.07636863 -20.53794885 14.84607685 -13.1953125 14.88671875 C-10.98018286 15.00102259 -8.87345631 15.3204852 -6.6875 15.6875 C-3.12200772 16.37885915 -3.12200772 16.37885915 -1.0625 14.6875 C1.33321576 10.88253968 1.29638064 7.40212421 1 3 C0.505 1.515 0.505 1.515 0 0 Z " fill="#F0BB20" transform="translate(88,62)"/>
<path d="M0 0 C3.66570237 2.76128235 6.73350751 6.23654627 8.7890625 10.34765625 C8.93850106 12.61509899 9.01051152 14.88797375 9.0390625 17.16015625 C9.06484375 18.38347656 9.090625 19.60679688 9.1171875 20.8671875 C8.76331884 24.6207229 7.96133118 26.32402336 5.7890625 29.34765625 C5.35464844 30.01410156 4.92023438 30.68054688 4.47265625 31.3671875 C4.06144531 31.95886719 3.65023437 32.55054688 3.2265625 33.16015625 C2.81277344 33.76472656 2.39898437 34.36929688 1.97265625 34.9921875 C1.58207031 35.43949219 1.19148438 35.88679688 0.7890625 36.34765625 C0.1290625 36.34765625 -0.5309375 36.34765625 -1.2109375 36.34765625 C-1.489375 34.42953125 -1.489375 34.42953125 -1.7734375 32.47265625 C-3.56716503 24.56281611 -8.19041894 18.4074361 -14.8359375 13.84765625 C-19.78987998 10.771562 -24.18752913 9.14452914 -30.0234375 8.72265625 C-30.99925781 8.64789063 -31.97507812 8.573125 -32.98046875 8.49609375 C-33.71652344 8.44710937 -34.45257813 8.398125 -35.2109375 8.34765625 C-26.51863299 -1.46623593 -12.19017374 -6.9980627 0 0 Z " fill="#EEBA21" transform="translate(130.2109375,82.65234375)"/>
<path d="M0 0 C4.15962515 2.29354825 7.2887416 5.46014806 9.875 9.4375 C9.875 10.0975 9.875 10.7575 9.875 11.4375 C9.31554687 11.2209375 8.75609375 11.004375 8.1796875 10.78125 C-1.26388366 7.5018105 -11.69404898 6.75489174 -21.1484375 10.4375 C-24.43800943 12.10178936 -27.23001219 14.15846704 -30.125 16.4375 C-28.16182799 9.45733287 -22.74355979 4.12561945 -16.6875 0.4375 C-10.85436798 -2.47906601 -6.06889958 -2.64866585 0 0 Z " fill="#E4B121" transform="translate(126.125,69.5625)"/>
<path d="M0 0 C2.46800047 1.15173355 4.04783565 2.04783565 6 4 C5.47471975 12.03678783 -5.20295649 20.87296654 -11 26 C-15.07272727 29.1030303 -15.07272727 29.1030303 -18.8125 28.6875 C-19.534375 28.460625 -20.25625 28.23375 -21 28 C-21 26.68 -21 25.36 -21 24 C-19.05859375 22.140625 -19.05859375 22.140625 -16.4375 20.25 C-8.88310822 14.48002608 -3.87701717 8.68451845 0 0 Z " fill="#E6BA26" transform="translate(115,105)"/>
<path d="M0 0 C4.75 0.875 4.75 0.875 7 2 C5.54009711 10.86079947 -4.50804669 19.33299104 -11 25 C-13.00210044 26.29088201 -14.76963393 27.1421669 -17 28 C-17.66 27.34 -18.32 26.68 -19 26 C-18.86923465 23.03598532 -18.03141289 22.03147205 -15.92578125 19.921875 C-15.06339844 19.20515625 -14.20101562 18.4884375 -13.3125 17.75 C-7.52679285 12.7175108 -2.33816288 7.4821212 0 0 Z " fill="#E4B926" transform="translate(104,97)"/>
<path d="M0 0 C2.97 0 5.94 0 9 0 C6.99278827 4.01442346 4.59357097 6.84174011 1.5625 10.0625 C1.07201172 10.59166016 0.58152344 11.12082031 0.07617188 11.66601562 C-1.27422353 13.1184652 -2.6366665 14.55968778 -4 16 C-4.56847656 16.61746094 -5.13695313 17.23492187 -5.72265625 17.87109375 C-7 19 -7 19 -9 19 C-9.60335621 15.63844398 -9.39944074 13.60702411 -7.51171875 10.73828125 C-6.2744503 9.18849365 -5.01321629 7.65747589 -3.7265625 6.1484375 C-1.73852994 3.82988122 -1.73852994 3.82988122 0 0 Z " fill="#E2B725" transform="translate(90,94)"/>
<path d="M0 0 C0.66 0 1.32 0 2 0 C2.43266548 3.08274155 2.69835592 5.0241699 2 8 C0.14760323 10.11037897 -1.7983477 11.69340367 -4.0546875 13.359375 C-6.1187914 15.10018552 -6.97883735 16.52771148 -8 19 C-10.64 19 -13.28 19 -16 19 C-15.360625 18.38125 -14.72125 17.7625 -14.0625 17.125 C-11.40679002 14.46165867 -8.85258811 11.71111234 -6.3125 8.9375 C-5.54550781 8.10089844 -4.77851562 7.26429687 -3.98828125 6.40234375 C-2.2521445 4.30465396 -1.07271031 2.48386934 0 0 Z " fill="#DCB62B" transform="translate(123,119)"/>
<path d="M0 0 C0 0.33 0 0.66 0 1 C-6.435 1.495 -6.435 1.495 -13 2 C-13 2.66 -13 3.32 -13 4 C-13.96099609 4.36351563 -13.96099609 4.36351563 -14.94140625 4.734375 C-20.25384557 6.79284627 -25.13335901 9.03769679 -30 12 C-30.33 10.68 -30.66 9.36 -31 8 C-30.46375 7.7525 -29.9275 7.505 -29.375 7.25 C-26.85554658 5.99133684 -26.85554658 5.99133684 -24.1875 4 C-16.43133221 -0.86661509 -8.93526735 -0.22307186 0 0 Z " fill="#251B08" transform="translate(126,77)"/>
<path d="M0 0 C0.99 0 1.98 0 3 0 C3.05402274 2.10388569 3.09280256 4.20816714 3.125 6.3125 C3.14820312 7.48425781 3.17140625 8.65601562 3.1953125 9.86328125 C3 13 3 13 1 16 C3.73919656 14.99562793 4.80379547 14.37175596 6.1875 11.75 C7.04585938 8.84478363 7.5816101 5.99846098 8 3 C8.66 3 9.32 3 10 3 C9.83594462 9.71135664 8.85033511 13.26796574 4 18 C1.29120665 19.35439668 -1.00933268 19.06501451 -4 19 C-4.33 19.66 -4.66 20.32 -5 21 C-5.66 19.68 -6.32 18.36 -7 17 C-6.05125 16.7525 -5.1025 16.505 -4.125 16.25 C-1.03294039 15.29646353 -1.03294039 15.29646353 0.375 13.375 C1.56182629 8.8650601 1.48147405 4.44442214 0 0 Z " fill="#947728" transform="translate(88,62)"/>
<path d="M0 0 C0 0.99 0 1.98 0 3 C-2.97 4.65 -5.94 6.3 -9 8 C-9.33 6.68 -9.66 5.36 -10 4 C-9.1028125 3.566875 -9.1028125 3.566875 -8.1875 3.125 C-2.11111111 0 -2.11111111 0 0 0 Z " fill="#1D1406" transform="translate(105,81)"/>
<path d="M0 0 C1 3 1 3 0.0625 5.1875 C-0.288125 5.785625 -0.63875 6.38375 -1 7 C-3.64 7 -6.28 7 -9 7 C-6.24479785 4.04070881 -3.53372712 1.96318174 0 0 Z " fill="#E5BE2A" transform="translate(116,131)"/>
<path d="M0 0 C1.70884005 1.62339805 3.37446717 3.29319053 5 5 C5 5.66 5 6.32 5 7 C1.7 6.01 -1.6 5.02 -5 4 C-5 3.67 -5 3.34 -5 3 C-3.35 2.67 -1.7 2.34 0 2 C0 1.34 0 0.68 0 0 Z " fill="#B38E27" transform="translate(131,74)"/>
<path d="M0 0 C1.65 0 3.3 0 5 0 C5 1.32 5 2.64 5 4 C3.35 4 1.7 4 0 4 C0 2.68 0 1.36 0 0 Z " fill="#241908" transform="translate(69,84)"/>
<path d="M0 0 C0.66 0 1.32 0 2 0 C2 1.65 2 3.3 2 5 C0.35 5 -1.3 5 -3 5 C-1.625 2.5 -1.625 2.5 0 0 Z " fill="#D8B431" transform="translate(123,132)"/>
</svg>
