<?xml version="1.0" encoding="UTF-8"?>
<svg xmlns="http://www.w3.org/2000/svg" xmlns:xlink="http://www.w3.org/1999/xlink" width="100px" height="100px" viewBox="0 0 100 100" version="1.1">
<g id="surface1">
<path style=" stroke:none;fill-rule:nonzero;fill:rgb(0.392157%,0.392157%,0%);fill-opacity:1;" d="M 28.953125 10.910156 C 29.402344 10.910156 29.855469 10.90625 30.316406 10.902344 C 31.804688 10.890625 33.292969 10.886719 34.78125 10.878906 C 35.292969 10.878906 35.804688 10.875 36.328125 10.875 C 39.027344 10.863281 41.730469 10.855469 44.429688 10.851562 C 47.207031 10.847656 49.988281 10.828125 52.769531 10.808594 C 54.914062 10.796875 57.058594 10.792969 59.203125 10.789062 C 60.226562 10.789062 61.25 10.78125 62.277344 10.773438 C 70.113281 10.707031 76.089844 11.242188 81.953125 16.921875 C 85.851562 21.078125 87.070312 25.367188 87.089844 30.953125 C 87.089844 31.402344 87.09375 31.855469 87.097656 32.316406 C 87.109375 33.804688 87.113281 35.292969 87.117188 36.78125 C 87.121094 37.292969 87.125 37.804688 87.125 38.328125 C 87.136719 41.027344 87.144531 43.730469 87.148438 46.429688 C 87.152344 49.207031 87.171875 51.988281 87.191406 54.769531 C 87.203125 56.914062 87.207031 59.058594 87.210938 61.203125 C 87.210938 62.226562 87.21875 63.25 87.226562 64.277344 C 87.289062 71.789062 86.960938 77.792969 81.5 83.5 C 77.148438 87.476562 72.441406 89.070312 66.636719 89.089844 C 66.199219 89.089844 65.757812 89.09375 65.304688 89.097656 C 63.847656 89.109375 62.390625 89.113281 60.933594 89.117188 C 60.1875 89.121094 60.1875 89.121094 59.425781 89.125 C 56.78125 89.136719 54.140625 89.144531 51.496094 89.148438 C 48.777344 89.152344 46.058594 89.171875 43.339844 89.191406 C 41.242188 89.203125 39.144531 89.207031 37.042969 89.210938 C 36.042969 89.210938 35.039062 89.21875 34.039062 89.226562 C 26.847656 89.289062 20.730469 88.875 15 84 C 10.714844 79.503906 8.925781 74.75 8.917969 68.628906 C 8.917969 68.1875 8.914062 67.746094 8.910156 67.292969 C 8.90625 65.835938 8.902344 64.375 8.898438 62.917969 C 8.894531 61.902344 8.894531 60.886719 8.890625 59.867188 C 8.882812 57.734375 8.882812 55.601562 8.878906 53.46875 C 8.878906 50.746094 8.863281 48.023438 8.851562 45.300781 C 8.839844 43.199219 8.839844 41.097656 8.839844 38.996094 C 8.835938 37.992188 8.832031 36.988281 8.824219 35.988281 C 8.816406 34.578125 8.820312 33.167969 8.820312 31.757812 C 8.816406 31.347656 8.8125 30.941406 8.808594 30.519531 C 8.847656 24.777344 10.945312 20.285156 14.828125 16.105469 C 18.953125 12.296875 23.472656 10.929688 28.953125 10.910156 Z M 28.953125 10.910156 "/>
<path style=" stroke:none;fill-rule:nonzero;fill:rgb(94.117647%,73.333335%,12.54902%);fill-opacity:1;" d="M 44 31 C 44.496094 31 44.988281 31 45.5 31 C 45.527344 32.050781 45.546875 33.105469 45.5625 34.15625 C 45.574219 34.742188 45.585938 35.328125 45.597656 35.929688 C 45.5 37.5 45.5 37.5 44.5 39 C 45.871094 38.496094 46.402344 38.1875 47.09375 36.875 C 47.523438 35.421875 47.789062 34 48 32.5 C 48.328125 32.5 48.660156 32.5 49 32.5 C 48.917969 35.855469 48.425781 37.632812 46 40 C 44.644531 40.675781 43.496094 40.53125 42 40.5 C 42.164062 40.757812 42.328125 41.015625 42.5 41.28125 C 43.308594 43.246094 43.347656 45.007812 42.640625 47.027344 C 41.25 50.007812 39.242188 52.171875 36.5 54 C 34.328125 54.722656 32.269531 54.824219 30 54.5 C 28.359375 53.269531 27.136719 51.964844 26.5 50 C 26.058594 46.773438 27.085938 44.523438 29 42 C 31.640625 39.539062 33.730469 38.421875 37.402344 38.445312 C 38.511719 38.5 39.5625 38.660156 40.65625 38.84375 C 42.4375 39.1875 42.4375 39.1875 43.46875 38.34375 C 44.667969 36.441406 44.648438 34.699219 44.5 32.5 C 44.253906 31.757812 44.253906 31.757812 44 31 Z M 44 31 "/>
<path style=" stroke:none;fill-rule:nonzero;fill:rgb(93.333334%,72.941178%,12.941177%);fill-opacity:1;" d="M 65.105469 41.328125 C 66.9375 42.707031 68.472656 44.445312 69.5 46.5 C 69.574219 47.632812 69.609375 48.769531 69.625 49.90625 C 69.636719 50.519531 69.652344 51.128906 69.664062 51.757812 C 69.488281 53.636719 69.085938 54.488281 68 56 C 67.78125 56.332031 67.566406 56.667969 67.34375 57.007812 C 67.136719 57.304688 66.929688 57.601562 66.71875 57.90625 C 66.511719 58.207031 66.304688 58.511719 66.09375 58.820312 C 65.898438 59.046875 65.703125 59.269531 65.5 59.5 C 65.171875 59.5 64.839844 59.5 64.5 59.5 C 64.359375 58.539062 64.359375 58.539062 64.21875 57.5625 C 63.320312 53.609375 61.011719 50.53125 57.6875 48.25 C 55.210938 46.710938 53.011719 45.898438 50.09375 45.6875 C 49.605469 45.648438 49.117188 45.613281 48.617188 45.574219 C 48.246094 45.550781 47.878906 45.523438 47.5 45.5 C 51.847656 40.59375 59.011719 37.828125 65.105469 41.328125 Z M 65.105469 41.328125 "/>
<path style=" stroke:none;fill-rule:nonzero;fill:rgb(89.411765%,69.411767%,12.941177%);fill-opacity:1;" d="M 63.0625 34.78125 C 65.140625 35.929688 66.707031 37.511719 68 39.5 C 68 39.828125 68 40.160156 68 40.5 C 67.71875 40.390625 67.441406 40.285156 67.152344 40.171875 C 62.429688 38.53125 57.214844 38.160156 52.488281 40 C 50.84375 40.832031 49.449219 41.859375 48 43 C 48.980469 39.511719 51.691406 36.84375 54.71875 35 C 57.636719 33.542969 60.027344 33.457031 63.0625 34.78125 Z M 63.0625 34.78125 "/>
<path style=" stroke:none;fill-rule:nonzero;fill:rgb(90.196079%,72.941178%,14.901961%);fill-opacity:1;" d="M 57.5 52.5 C 58.734375 53.074219 59.523438 53.523438 60.5 54.5 C 60.238281 58.519531 54.898438 62.9375 52 65.5 C 49.964844 67.050781 49.964844 67.050781 48.09375 66.84375 C 47.734375 66.730469 47.371094 66.617188 47 66.5 C 47 65.839844 47 65.179688 47 64.5 C 47.96875 63.570312 47.96875 63.570312 49.28125 62.625 C 53.058594 59.738281 55.5625 56.84375 57.5 52.5 Z M 57.5 52.5 "/>
<path style=" stroke:none;fill-rule:nonzero;fill:rgb(89.411765%,72.549021%,14.901961%);fill-opacity:1;" d="M 52 48.5 C 54.375 48.9375 54.375 48.9375 55.5 49.5 C 54.769531 53.929688 49.746094 58.167969 46.5 61 C 45.5 61.644531 44.613281 62.070312 43.5 62.5 C 43.171875 62.171875 42.839844 61.839844 42.5 61.5 C 42.566406 60.019531 42.984375 59.515625 44.039062 58.460938 C 44.46875 58.101562 44.898438 57.746094 45.34375 57.375 C 48.238281 54.859375 50.832031 52.242188 52 48.5 Z M 52 48.5 "/>
<path style=" stroke:none;fill-rule:nonzero;fill:rgb(88.627452%,71.764708%,14.509805%);fill-opacity:1;" d="M 45 47 C 46.484375 47 47.96875 47 49.5 47 C 48.496094 49.007812 47.296875 50.421875 45.78125 52.03125 C 45.535156 52.296875 45.289062 52.558594 45.039062 52.832031 C 44.363281 53.558594 43.683594 54.28125 43 55 C 42.714844 55.308594 42.429688 55.617188 42.140625 55.9375 C 41.5 56.5 41.5 56.5 40.5 56.5 C 40.199219 54.820312 40.300781 53.804688 41.242188 52.367188 C 41.863281 51.59375 42.492188 50.828125 43.136719 50.074219 C 44.128906 48.914062 44.128906 48.914062 45 47 Z M 45 47 "/>
<path style=" stroke:none;fill-rule:nonzero;fill:rgb(86.274511%,71.372551%,16.862746%);fill-opacity:1;" d="M 61.5 59.5 C 61.828125 59.5 62.160156 59.5 62.5 59.5 C 62.714844 61.042969 62.847656 62.011719 62.5 63.5 C 61.574219 64.554688 60.601562 65.347656 59.472656 66.179688 C 58.441406 67.050781 58.011719 67.765625 57.5 69 C 56.179688 69 54.859375 69 53.5 69 C 53.820312 68.691406 54.140625 68.382812 54.46875 68.0625 C 55.796875 66.730469 57.074219 65.355469 58.34375 63.96875 C 58.726562 63.550781 59.109375 63.132812 59.507812 62.703125 C 60.375 61.652344 60.964844 60.742188 61.5 59.5 Z M 61.5 59.5 "/>
<path style=" stroke:none;fill-rule:nonzero;fill:rgb(14.509805%,10.588235%,3.137255%);fill-opacity:1;" d="M 63 38.5 C 63 38.664062 63 38.828125 63 39 C 59.78125 39.246094 59.78125 39.246094 56.5 39.5 C 56.5 39.828125 56.5 40.160156 56.5 40.5 C 56.019531 40.683594 56.019531 40.683594 55.53125 40.867188 C 52.875 41.894531 50.433594 43.019531 48 44.5 C 47.835938 43.839844 47.671875 43.179688 47.5 42.5 C 47.769531 42.375 48.035156 42.253906 48.3125 42.125 C 49.570312 41.496094 49.570312 41.496094 50.90625 40.5 C 54.785156 38.066406 58.53125 38.386719 63 38.5 Z M 63 38.5 "/>
<path style=" stroke:none;fill-rule:nonzero;fill:rgb(58.039218%,46.666667%,15.686275%);fill-opacity:1;" d="M 44 31 C 44.496094 31 44.988281 31 45.5 31 C 45.527344 32.050781 45.546875 33.105469 45.5625 34.15625 C 45.574219 34.742188 45.585938 35.328125 45.597656 35.929688 C 45.5 37.5 45.5 37.5 44.5 39 C 45.871094 38.496094 46.402344 38.1875 47.09375 36.875 C 47.523438 35.421875 47.789062 34 48 32.5 C 48.328125 32.5 48.660156 32.5 49 32.5 C 48.917969 35.855469 48.425781 37.632812 46 40 C 44.644531 40.675781 43.496094 40.53125 42 40.5 C 41.835938 40.828125 41.671875 41.160156 41.5 41.5 C 41.171875 40.839844 40.839844 40.179688 40.5 39.5 C 40.972656 39.375 41.449219 39.253906 41.9375 39.125 C 43.484375 38.648438 43.484375 38.648438 44.1875 37.6875 C 44.78125 35.433594 44.742188 33.222656 44 31 Z M 44 31 "/>
<path style=" stroke:none;fill-rule:nonzero;fill:rgb(11.372549%,7.843138%,2.352941%);fill-opacity:1;" d="M 52.5 40.5 C 52.5 40.996094 52.5 41.488281 52.5 42 C 51.015625 42.824219 49.53125 43.648438 48 44.5 C 47.835938 43.839844 47.671875 43.179688 47.5 42.5 C 47.949219 42.285156 47.949219 42.285156 48.40625 42.0625 C 51.445312 40.5 51.445312 40.5 52.5 40.5 Z M 52.5 40.5 "/>
<path style=" stroke:none;fill-rule:nonzero;fill:rgb(89.803922%,74.509805%,16.470589%);fill-opacity:1;" d="M 58 65.5 C 58.5 67 58.5 67 58.03125 68.09375 C 57.855469 68.394531 57.679688 68.691406 57.5 69 C 56.179688 69 54.859375 69 53.5 69 C 54.878906 67.519531 56.234375 66.480469 58 65.5 Z M 58 65.5 "/>
<path style=" stroke:none;fill-rule:nonzero;fill:rgb(70.19608%,55.686277%,15.294118%);fill-opacity:1;" d="M 65.5 37 C 66.355469 37.8125 67.1875 38.648438 68 39.5 C 68 39.828125 68 40.160156 68 40.5 C 66.351562 40.003906 64.699219 39.511719 63 39 C 63 38.835938 63 38.671875 63 38.5 C 63.824219 38.335938 64.648438 38.171875 65.5 38 C 65.5 37.671875 65.5 37.339844 65.5 37 Z M 65.5 37 "/>
<path style=" stroke:none;fill-rule:nonzero;fill:rgb(14.117648%,9.803922%,3.137255%);fill-opacity:1;" d="M 34.5 42 C 35.324219 42 36.148438 42 37 42 C 37 42.660156 37 43.320312 37 44 C 36.175781 44 35.351562 44 34.5 44 C 34.5 43.339844 34.5 42.679688 34.5 42 Z M 34.5 42 "/>
<path style=" stroke:none;fill-rule:nonzero;fill:rgb(84.705883%,70.588237%,19.215687%);fill-opacity:1;" d="M 61.5 66 C 61.828125 66 62.160156 66 62.5 66 C 62.5 66.824219 62.5 67.648438 62.5 68.5 C 61.675781 68.5 60.851562 68.5 60 68.5 C 60.6875 67.25 60.6875 67.25 61.5 66 Z M 61.5 66 "/>
</g>
</svg>
