<?xml version="1.0" encoding="UTF-8"?>
<svg xmlns="http://www.w3.org/2000/svg" xmlns:xlink="http://www.w3.org/1999/xlink" width="607px" height="200px" viewBox="0 0 606 200" version="1.1">
<g id="surface1">
<path style=" stroke:none;fill-rule:nonzero;fill:rgb(0%,0%,0%);fill-opacity:1;" d="M 115.894531 25.875 C 120.5 25.875 125.109375 25.875 129.855469 25.875 C 129.855469 29.335938 129.855469 32.796875 129.855469 36.363281 C 131.324219 36.328125 132.792969 36.289062 134.308594 36.253906 C 139.179688 36.136719 144.050781 36.058594 148.921875 36 C 151.871094 35.964844 154.824219 35.914062 157.773438 35.835938 C 160.625 35.757812 163.476562 35.71875 166.328125 35.699219 C 167.414062 35.6875 168.5 35.664062 169.582031 35.625 C 178.058594 35.339844 178.058594 35.339844 181.472656 37.894531 C 183.058594 39.640625 184.402344 41.394531 185.710938 43.355469 C 186.570312 44.390625 186.570312 44.390625 187.445312 45.445312 C 188.078125 46.25 188.078125 46.25 188.71875 47.070312 C 189.148438 47.617188 189.578125 48.164062 190.019531 48.722656 C 190.441406 49.261719 190.863281 49.796875 191.296875 50.351562 C 192.226562 51.515625 193.15625 52.683594 194.085938 53.847656 C 193.066406 57.035156 191.25 59.246094 189.070312 61.714844 C 188.417969 62.457031 187.769531 63.207031 187.121094 63.953125 C 186.789062 64.320312 186.460938 64.683594 186.121094 65.058594 C 184.960938 66.410156 184.960938 66.410156 184.140625 68.03125 C 182.96875 70.007812 181.933594 71.300781 180.125 72.726562 C 176.296875 73.617188 172.558594 73.460938 168.652344 73.34375 C 167.53125 73.332031 166.410156 73.320312 165.292969 73.316406 C 162.355469 73.289062 159.421875 73.230469 156.488281 73.160156 C 153.488281 73.09375 150.488281 73.066406 147.488281 73.035156 C 141.609375 72.96875 135.734375 72.859375 129.855469 72.726562 C 129.855469 75.265625 129.855469 77.804688 129.855469 80.417969 C 133.773438 80.417969 137.691406 80.417969 141.726562 80.417969 C 141.726562 92.417969 141.726562 104.417969 141.726562 116.785156 C 137.808594 116.785156 133.890625 116.785156 129.855469 116.785156 C 129.855469 129.015625 129.855469 141.246094 129.855469 153.847656 C 139.996094 153.847656 150.132812 153.847656 160.574219 153.847656 C 160.574219 158.691406 160.574219 163.539062 160.574219 168.53125 C 135.695312 168.53125 110.8125 168.53125 85.175781 168.53125 C 85.175781 163.683594 85.175781 158.839844 85.175781 153.847656 C 95.3125 153.847656 105.449219 153.847656 115.894531 153.847656 C 115.894531 141.617188 115.894531 129.382812 115.894531 116.785156 C 112.386719 116.863281 108.882812 116.945312 105.273438 117.027344 C 103.042969 117.066406 100.8125 117.097656 98.582031 117.125 C 95.046875 117.167969 91.511719 117.214844 87.976562 117.3125 C 85.125 117.386719 82.273438 117.429688 79.421875 117.445312 C 78.335938 117.460938 77.253906 117.484375 76.167969 117.523438 C 67.695312 117.808594 67.695312 117.808594 64.285156 115.257812 C 62.699219 113.507812 61.355469 111.75 60.042969 109.789062 C 59.414062 109.027344 58.777344 108.269531 58.128906 107.523438 C 57.636719 106.914062 57.144531 106.308594 56.636719 105.683594 C 56.136719 105.0625 55.632812 104.445312 55.117188 103.808594 C 53.9375 102.324219 52.789062 100.824219 51.664062 99.300781 C 52.820312 96.542969 54.699219 94.449219 56.636719 92.21875 C 57.28125 91.476562 57.921875 90.730469 58.5625 89.984375 C 59.0625 89.425781 59.0625 89.425781 59.574219 88.855469 C 60.796875 87.414062 60.796875 87.414062 61.773438 85.65625 C 63.714844 82.609375 65.15625 80.71875 68.738281 79.804688 C 71.753906 79.609375 74.695312 79.632812 77.714844 79.738281 C 78.816406 79.75 79.921875 79.757812 81.023438 79.765625 C 83.914062 79.792969 86.800781 79.863281 89.6875 79.9375 C 92.640625 80.011719 95.59375 80.042969 98.546875 80.078125 C 104.332031 80.152344 110.113281 80.273438 115.894531 80.417969 C 115.894531 77.882812 115.894531 75.34375 115.894531 72.726562 C 111.976562 72.726562 108.0625 72.726562 104.023438 72.726562 C 104.023438 60.726562 104.023438 48.726562 104.023438 36.363281 C 107.941406 36.363281 111.859375 36.363281 115.894531 36.363281 C 115.894531 32.902344 115.894531 29.441406 115.894531 25.875 Z M 115.894531 25.875 "/>
<path style=" stroke:none;fill-rule:nonzero;fill:rgb(0%,0%,0%);fill-opacity:1;" d="M 503.285156 83 C 509.46875 87.523438 513.058594 93.980469 514.542969 101.398438 C 514.542969 105.089844 514.542969 108.785156 514.542969 112.585938 C 500.488281 112.585938 486.433594 112.585938 471.953125 112.585938 C 474.042969 116.773438 475.1875 118.652344 479.46875 120.34375 C 483.925781 121.597656 488.820312 121.667969 493.203125 120.148438 C 494.917969 118.996094 494.917969 118.996094 496.019531 117.914062 C 497.085938 116.914062 497.085938 116.914062 499.183594 115.382812 C 502.285156 116.097656 504.792969 117.496094 507.472656 119.1875 C 508.148438 119.605469 508.824219 120.023438 509.519531 120.453125 C 510.277344 121.058594 510.277344 121.058594 511.050781 121.679688 C 511.050781 124.425781 510.242188 124.90625 508.34375 126.835938 C 501.761719 133.222656 493.574219 135.734375 484.519531 135.664062 C 475.691406 134.664062 467.480469 132.023438 461.480469 125.175781 C 456.257812 117.605469 454.699219 109.105469 456.246094 100.050781 C 457.992188 92.863281 461.742188 87.210938 467.785156 82.90625 C 478.601562 76.34375 492.503906 76.4375 503.285156 83 Z M 473.59375 96.714844 C 472.332031 98.121094 472.332031 98.121094 471.953125 101.398438 C 480.476562 101.398438 489.003906 101.398438 497.785156 101.398438 C 497.019531 97.570312 496.4375 96.863281 493.597656 94.40625 C 486.425781 89.617188 479.808594 91.527344 473.59375 96.714844 Z M 473.59375 96.714844 "/>
<path style=" stroke:none;fill-rule:nonzero;fill:rgb(0%,0%,0%);fill-opacity:1;" d="M 326.515625 83.410156 C 332.261719 87.683594 335.816406 93.71875 337.210938 100.699219 C 337.210938 104.621094 337.210938 108.546875 337.210938 112.585938 C 323.15625 112.585938 309.101562 112.585938 294.621094 112.585938 C 296.710938 116.773438 297.855469 118.65625 302.140625 120.339844 C 306.820312 121.664062 312.195312 121.886719 316.65625 119.753906 C 318.675781 118.558594 320.316406 117.175781 321.851562 115.382812 C 325.019531 116.328125 327.660156 117.617188 330.488281 119.316406 C 331.230469 119.761719 331.96875 120.203125 332.730469 120.65625 C 333.289062 120.992188 333.84375 121.332031 334.417969 121.679688 C 331.300781 128.171875 326.171875 131.613281 319.539062 134.132812 C 310.636719 136.742188 301.207031 135.882812 292.832031 131.90625 C 286.351562 128.261719 282.476562 123.433594 279.699219 116.476562 C 278.054688 107.09375 277.9375 97.695312 283.453125 89.511719 C 293.890625 76.542969 312.785156 74.636719 326.515625 83.410156 Z M 296.019531 97.203125 C 295.558594 98.585938 295.097656 99.972656 294.621094 101.398438 C 303.378906 101.398438 312.132812 101.398438 321.152344 101.398438 C 319.425781 96.851562 319.425781 96.851562 316.308594 94.144531 C 315.839844 93.804688 315.375 93.46875 314.894531 93.121094 C 308.371094 89.386719 300.886719 92.210938 296.019531 97.203125 Z M 296.019531 97.203125 "/>
<path style=" stroke:none;fill-rule:nonzero;fill:rgb(0%,0%,0%);fill-opacity:1;" d="M 525.710938 79.019531 C 530.78125 79.019531 535.847656 79.019531 541.070312 79.019531 C 541.097656 81.488281 541.125 83.957031 541.152344 86.496094 C 541.183594 88.894531 541.21875 91.292969 541.253906 93.691406 C 541.277344 95.351562 541.296875 97.015625 541.3125 98.679688 C 541.335938 101.070312 541.375 103.464844 541.414062 105.859375 C 541.417969 106.597656 541.421875 107.339844 541.425781 108.101562 C 541.515625 112.714844 541.746094 116.765625 545.179688 120.195312 C 548.210938 121.804688 551.800781 122.226562 555.105469 121.242188 C 558.21875 119.648438 559.425781 117.882812 560.621094 114.683594 C 560.941406 111.949219 560.960938 109.226562 560.976562 106.472656 C 560.988281 105.6875 561.003906 104.902344 561.015625 104.09375 C 561.054688 101.59375 561.078125 99.09375 561.101562 96.589844 C 561.121094 94.890625 561.148438 93.191406 561.171875 91.492188 C 561.234375 87.335938 561.273438 83.179688 561.316406 79.019531 C 566.386719 79.019531 571.457031 79.019531 576.675781 79.019531 C 576.675781 97.25 576.675781 115.484375 576.675781 134.265625 C 571.609375 134.265625 566.539062 134.265625 561.316406 134.265625 C 561.085938 133.113281 560.855469 131.957031 560.621094 130.769531 C 560.242188 131.011719 559.863281 131.257812 559.472656 131.507812 C 558.972656 131.828125 558.472656 132.144531 557.957031 132.472656 C 557.464844 132.789062 556.96875 133.105469 556.460938 133.433594 C 551.71875 136.203125 544.105469 135.6875 538.859375 134.4375 C 533.609375 132.410156 530.144531 129.703125 527.804688 124.476562 C 525.695312 119.097656 525.429688 114.117188 525.507812 108.386719 C 525.511719 107.542969 525.511719 106.699219 525.515625 105.828125 C 525.527344 103.15625 525.554688 100.484375 525.582031 97.816406 C 525.589844 95.992188 525.601562 94.171875 525.609375 92.351562 C 525.632812 87.90625 525.667969 83.464844 525.710938 79.019531 Z M 525.710938 79.019531 "/>
<path style=" stroke:none;fill-rule:nonzero;fill:rgb(0%,0%,0%);fill-opacity:1;" d="M 259.714844 80.417969 C 260.21875 80.628906 260.726562 80.839844 261.246094 81.058594 C 264.609375 82.585938 265.96875 83.886719 268.789062 86.714844 C 266.257812 89.945312 263.722656 93.175781 261.109375 96.503906 C 258.410156 95.601562 255.839844 94.671875 253.210938 93.617188 C 248.890625 92.039062 245.226562 91.566406 240.820312 93.007812 C 240.375 93.238281 239.925781 93.46875 239.46875 93.707031 C 239.46875 94.859375 239.46875 96.015625 239.46875 97.203125 C 240.570312 97.457031 240.570312 97.457031 241.695312 97.714844 C 244.367188 98.335938 247.035156 98.972656 249.699219 99.613281 C 251.21875 99.972656 252.738281 100.316406 254.261719 100.660156 C 260.050781 102.050781 264.554688 103.433594 268.347656 108.1875 C 271.132812 112.742188 270.773438 118.230469 269.90625 123.332031 C 268.515625 128.007812 265.007812 130.65625 260.972656 133.09375 C 252.734375 136.875 240.714844 136.152344 232.378906 133.0625 C 225.496094 129.96875 225.496094 129.96875 222.710938 127.972656 C 222.480469 127.28125 222.25 126.585938 222.015625 125.875 C 223.109375 124.113281 224.21875 122.496094 225.460938 120.847656 C 225.964844 120.160156 225.964844 120.160156 226.480469 119.460938 C 227.3125 118.332031 228.152344 117.207031 228.996094 116.082031 C 232.339844 116.875 235.445312 118.199219 238.636719 119.472656 C 241.632812 120.558594 244.359375 121.082031 247.539062 121.109375 C 248.058594 121.121094 248.578125 121.128906 249.113281 121.140625 C 250.859375 120.957031 251.960938 120.539062 253.429688 119.582031 C 253.996094 117.792969 253.996094 117.792969 254.128906 116.082031 C 250.105469 114.449219 246.261719 113.457031 242 112.675781 C 235.488281 111.375 229.132812 109.835938 224.894531 104.296875 C 222.507812 99.742188 222.1875 94.390625 223.578125 89.484375 C 225.253906 85.148438 228.078125 82.21875 232.25 80.234375 C 240.875 77.363281 251.242188 76.671875 259.714844 80.417969 Z M 259.714844 80.417969 "/>
<path style=" stroke:none;fill-rule:nonzero;fill:rgb(0%,0%,0%);fill-opacity:1;" d="M 393.0625 63.636719 C 397.902344 63.636719 402.738281 63.636719 407.722656 63.636719 C 407.722656 68.484375 407.722656 73.328125 407.722656 78.320312 C 411.410156 78.320312 415.097656 78.320312 418.894531 78.320312 C 418.894531 82.707031 418.894531 87.089844 418.894531 91.609375 C 415.207031 91.609375 411.519531 91.609375 407.722656 91.609375 C 407.792969 94.792969 407.863281 97.976562 407.945312 101.160156 C 407.972656 102.242188 407.996094 103.324219 408.019531 104.402344 C 408.050781 105.964844 408.089844 107.527344 408.132812 109.089844 C 408.140625 109.566406 408.148438 110.042969 408.15625 110.53125 C 408.261719 113.992188 408.773438 117 409.816406 120.28125 C 412.777344 121.898438 414.722656 121.679688 418.195312 121.679688 C 418.195312 126.0625 418.195312 130.449219 418.195312 134.964844 C 411.152344 136.375 404.457031 135.820312 397.6875 133.433594 C 395.292969 131.777344 394.058594 129.96875 393.0625 127.273438 C 392.691406 124.507812 392.734375 121.78125 392.789062 118.992188 C 392.792969 118.207031 392.796875 117.421875 392.800781 116.617188 C 392.816406 114.121094 392.851562 111.628906 392.886719 109.132812 C 392.902344 107.4375 392.914062 105.742188 392.925781 104.046875 C 392.957031 99.902344 393.003906 95.753906 393.0625 91.609375 C 390.757812 91.609375 388.453125 91.609375 386.082031 91.609375 C 386.082031 87.222656 386.082031 82.839844 386.082031 78.320312 C 388.382812 78.320312 390.6875 78.320312 393.0625 78.320312 C 393.0625 73.476562 393.0625 68.628906 393.0625 63.636719 Z M 393.0625 63.636719 "/>
<path style=" stroke:none;fill-rule:nonzero;fill:rgb(0%,0%,0%);fill-opacity:1;" d="M 352.570312 63.636719 C 357.40625 63.636719 362.246094 63.636719 367.230469 63.636719 C 367.230469 68.484375 367.230469 73.328125 367.230469 78.320312 C 370.917969 78.320312 374.601562 78.320312 378.402344 78.320312 C 378.402344 82.707031 378.402344 87.089844 378.402344 91.609375 C 374.714844 91.609375 371.027344 91.609375 367.230469 91.609375 C 367.28125 94.78125 367.339844 97.949219 367.414062 101.121094 C 367.4375 102.199219 367.457031 103.273438 367.472656 104.351562 C 367.5625 110.207031 367.703125 115.5 370.023438 120.980469 C 372.558594 121.210938 375.089844 121.441406 377.703125 121.679688 C 377.703125 126.0625 377.703125 130.449219 377.703125 134.964844 C 370.734375 136.128906 363.625 136.382812 357.195312 133.042969 C 354.574219 130.792969 352.804688 128.988281 352.328125 125.519531 C 352.246094 123.359375 352.253906 121.21875 352.296875 119.0625 C 352.300781 117.882812 352.300781 117.882812 352.308594 116.679688 C 352.324219 114.179688 352.359375 111.679688 352.394531 109.179688 C 352.410156 107.480469 352.421875 105.78125 352.433594 104.082031 C 352.464844 99.921875 352.511719 95.765625 352.570312 91.609375 C 350.265625 91.609375 347.960938 91.609375 345.585938 91.609375 C 345.585938 87.222656 345.585938 82.839844 345.585938 78.320312 C 347.890625 78.320312 350.195312 78.320312 352.570312 78.320312 C 352.570312 73.476562 352.570312 68.628906 352.570312 63.636719 Z M 352.570312 63.636719 "/>
<path style=" stroke:none;fill-rule:nonzero;fill:rgb(0%,0%,0%);fill-opacity:1;" d="M 429.367188 58.742188 C 434.664062 58.742188 439.964844 58.742188 445.425781 58.742188 C 445.441406 68.484375 445.453125 78.230469 445.460938 87.972656 C 445.464844 92.496094 445.46875 97.019531 445.476562 101.542969 C 445.484375 105.90625 445.488281 110.269531 445.488281 114.628906 C 445.492188 116.296875 445.492188 117.96875 445.496094 119.636719 C 445.503906 121.964844 445.503906 124.289062 445.503906 126.617188 C 445.503906 127.316406 445.507812 128.011719 445.511719 128.730469 C 445.511719 129.363281 445.507812 129.992188 445.507812 130.640625 C 445.507812 131.191406 445.507812 131.742188 445.511719 132.3125 C 445.425781 133.566406 445.425781 133.566406 444.726562 134.265625 C 443.644531 134.335938 442.558594 134.355469 441.476562 134.359375 C 440.492188 134.359375 440.492188 134.359375 439.488281 134.363281 C 438.453125 134.355469 438.453125 134.355469 437.394531 134.351562 C 436.703125 134.355469 436.015625 134.359375 435.304688 134.363281 C 434.648438 134.359375 433.992188 134.359375 433.316406 134.359375 C 432.710938 134.359375 432.101562 134.355469 431.480469 134.355469 C 430.066406 134.265625 430.066406 134.265625 429.367188 133.566406 C 429.300781 132.59375 429.28125 131.617188 429.28125 130.640625 C 429.28125 130.011719 429.28125 129.378906 429.28125 128.730469 C 429.28125 128.035156 429.285156 127.335938 429.285156 126.617188 C 429.285156 125.886719 429.285156 125.160156 429.285156 124.40625 C 429.289062 121.980469 429.292969 119.554688 429.296875 117.128906 C 429.300781 115.453125 429.300781 113.777344 429.300781 112.101562 C 429.304688 107.675781 429.3125 103.253906 429.320312 98.832031 C 429.324219 94.324219 429.328125 89.8125 429.332031 85.304688 C 429.339844 76.449219 429.351562 67.597656 429.367188 58.742188 Z M 429.367188 58.742188 "/>
</g>
</svg>
