<?xml version="1.0" encoding="UTF-8"?>
<svg version="1.1" xmlns="http://www.w3.org/2000/svg" width="843" height="296">
<path d="M0 0 C0 3.96 0 7.92 0 12 C2.91428833 11.96072388 2.91428833 11.96072388 5.88745117 11.9206543 C12.31347897 11.83996231 18.73938669 11.78254697 25.16578197 11.74093914 C29.06141191 11.71486747 32.95649273 11.67951573 36.85180664 11.62280273 C40.61252026 11.56839336 44.37270644 11.53856117 48.13378334 11.52561378 C49.56714492 11.51638965 51.00047828 11.49837629 52.43361473 11.47134972 C54.44398106 11.43495241 56.45488047 11.43295673 58.46557617 11.43237305 C59.60919113 11.42126999 60.75280609 11.41016693 61.93107605 11.39872742 C65.94272484 12.18470142 67.39177825 13.93771403 70 17 C70.52464844 17.56952393 71.04929688 18.13904785 71.58984375 18.72583008 C73.06577734 20.41646922 74.53748093 22.11023127 76 23.8125 C76.79229004 24.73409912 76.79229004 24.73409912 77.60058594 25.67431641 C81.18526379 29.90174103 84.28558632 34.15283271 87 39 C86.43152344 39.61746094 85.86304688 40.23492187 85.27734375 40.87109375 C80.24081243 46.39530256 75.51215516 52.04254513 71 58 C67.23728814 62.88135593 67.23728814 62.88135593 65 64 C62.93707015 64.09160337 60.87111115 64.1175118 58.80615234 64.11352539 C57.50495453 64.11344986 56.20375671 64.11337433 54.86312866 64.11329651 C53.43739789 64.10818947 52.0116675 64.10297347 50.5859375 64.09765625 C49.13148039 64.09579147 47.67702266 64.09436785 46.2225647 64.09336853 C42.39207224 64.08954805 38.56161763 64.07972176 34.73114014 64.06866455 C30.82336947 64.05844035 26.91559269 64.05386874 23.0078125 64.04882812 C15.3385244 64.03809908 7.6692675 64.02102828 0 64 C0 66.64 0 69.28 0 72 C0.56847656 71.97679688 1.13695312 71.95359375 1.72265625 71.9296875 C2.88087891 71.90261719 2.88087891 71.90261719 4.0625 71.875 C5.19365234 71.84019531 5.19365234 71.84019531 6.34765625 71.8046875 C9 72 9 72 16 74 C15.67 90.17 15.34 106.34 15 123 C10.05 123.33 5.1 123.66 0 124 C0 139.84 0 155.68 0 172 C20.295 172.495 20.295 172.495 41 173 C41 179.6 41 186.2 41 193 C6.68 193 -27.64 193 -63 193 C-63 186.4 -63 179.8 -63 173 C-59.11562746 171.70520915 -55.44117884 171.87663082 -51.39453125 171.90234375 C-50.27854553 171.90385437 -50.27854553 171.90385437 -49.14001465 171.90539551 C-46.36416073 171.91062257 -43.58832879 171.92458385 -40.8125 171.9375 C-34.604375 171.958125 -28.39625 171.97875 -22 172 C-22 156.16 -22 140.32 -22 124 C-29.09822266 124.08314453 -29.09822266 124.08314453 -36.33984375 124.16796875 C-39.35246751 124.17858007 -42.36440343 124.18592969 -45.37695312 124.18164062 C-50.15069725 124.17515141 -54.92233215 124.18019955 -59.69555664 124.25708008 C-63.54798172 124.3183705 -67.39714853 124.32530163 -71.24991035 124.29583168 C-72.71347744 124.29393993 -74.17720626 124.31106313 -75.64030266 124.34822655 C-87.06997429 124.61987717 -87.06997429 124.61987717 -91.84767151 120.60993958 C-94.13366211 117.83776321 -96.08524458 115.03650017 -98 112 C-99.07750085 110.60733585 -100.16864132 109.22486706 -101.28515625 107.86328125 C-102.21211514 106.68060957 -103.13794149 105.49704914 -104.0625 104.3125 C-104.78856445 103.3853418 -104.78856445 103.3853418 -105.52929688 102.43945312 C-106.68726202 100.96046794 -107.84380132 99.48036654 -109 98 C-108.505 97.01 -108.505 97.01 -108 96 C-107.34 96 -106.68 96 -106 96 C-105.75636719 95.27296875 -105.51273437 94.5459375 -105.26171875 93.796875 C-103.84603979 90.65871359 -102.17787286 88.74158036 -99.8125 86.25 C-96.46009007 82.75851895 -96.46009007 82.75851895 -93.74819946 78.77986145 C-91.30488611 74.76648671 -89.4962848 72.3734946 -84.82237244 71.20681763 C-80.81109266 70.95740214 -76.89151065 70.98598446 -72.87890625 71.12109375 C-71.40921441 71.13790105 -69.9394718 71.15070222 -68.4697113 71.15968323 C-64.61978466 71.19388531 -60.77296323 71.28213441 -56.92425537 71.38201904 C-52.98964445 71.47444859 -49.05452658 71.5152672 -45.11914062 71.56054688 C-37.41135172 71.65678146 -29.70611253 71.81017024 -22 72 C-22 69.36 -22 66.72 -22 64 C-26.95 64 -31.9 64 -37 64 C-37.02464113 56.75512951 -37.0428318 49.51028318 -37.05493164 42.26538086 C-37.05997356 39.79857967 -37.06680691 37.33178148 -37.07543945 34.86499023 C-37.08751125 31.32795471 -37.09322956 27.79095855 -37.09765625 24.25390625 C-37.10281754 23.14350479 -37.10797882 22.03310333 -37.11329651 20.88905334 C-37.11337204 19.86807053 -37.11344757 18.84708771 -37.11352539 17.79516602 C-37.115746 16.89137711 -37.11796661 15.9875882 -37.12025452 15.05641174 C-37 13 -37 13 -36 12 C-33.64686445 11.92728259 -31.29166332 11.91629132 -28.9375 11.9375 C-27.00197266 11.95103516 -27.00197266 11.95103516 -25.02734375 11.96484375 C-24.02832031 11.97644531 -23.02929688 11.98804687 -22 12 C-22.01160156 11.31292969 -22.02320313 10.62585938 -22.03515625 9.91796875 C-22.04417969 9.01691406 -22.05320312 8.11585937 -22.0625 7.1875 C-22.07410156 6.29417969 -22.08570313 5.40085937 -22.09765625 4.48046875 C-22 2 -22 2 -21 -1 C-13.64829614 -2.22528398 -7.11153385 -2.84461354 0 0 Z " fill="#FEFEFE" transform="translate(178,55)"/>
<path d="M0 0 C1.12039673 0.00737183 1.12039673 0.00737183 2.26342773 0.01489258 C13.39106443 0.25011091 22.05024432 3.94439369 30.3125 11.375 C38.6637889 20.28176454 41.00668709 30.41931142 40.6875 42.3125 C40.40482756 43.98850274 40.09161815 45.66156771 39.6875 47.3125 C36.51326416 48.25076489 33.67234218 48.43389248 30.36816406 48.42602539 C29.30736633 48.42594986 28.2465686 48.42587433 27.15362549 48.42579651 C26.01496033 48.42063522 24.87629517 48.41547394 23.703125 48.41015625 C22.53239441 48.4087413 21.36166382 48.40732635 20.15545654 48.40586853 C16.41611171 48.4002709 12.67682674 48.3877188 8.9375 48.375 C6.40234461 48.3699847 3.86718829 48.36542184 1.33203125 48.36132812 C-4.88283293 48.35030224 -11.09766219 48.33356644 -17.3125 48.3125 C-16.8175 49.09625 -16.3225 49.88 -15.8125 50.6875 C-14.3125 53.3125 -14.3125 53.3125 -14.3125 55.3125 C-4.57312687 58.03952448 4.34062362 60.51903 13.6875 55.3125 C15.74816372 53.70671345 17.71063927 52.02335256 19.6875 50.3125 C20.67492187 50.87839844 21.66234375 51.44429687 22.6796875 52.02734375 C23.97394206 52.76825759 25.26821379 53.50914145 26.5625 54.25 C27.21347656 54.62318359 27.86445313 54.99636719 28.53515625 55.38085938 C32.07496834 57.41383078 32.07496834 57.41383078 35.6875 59.3125 C35.6875 60.3025 35.6875 61.2925 35.6875 62.3125 C35.0275 62.3125 34.3675 62.3125 33.6875 62.3125 C33.31625 63.19421875 33.31625 63.19421875 32.9375 64.09375 C28.89763753 71.26450588 20.20506031 74.95354142 12.6875 77.3125 C1.04116776 80.28603164 -12.98735658 78.37333937 -23.4765625 72.53125 C-33.20970546 66.07009978 -38.29205434 58.71699886 -40.8125 47.33203125 C-42.68547949 36.02099106 -40.74962178 24.90802266 -34.3125 15.3125 C-28.88810062 9.26220839 -23.05176508 4.84845613 -15.3125 2.3125 C-13.70375 1.77882813 -13.70375 1.77882813 -12.0625 1.234375 C-7.92483054 0.21719792 -4.23773888 -0.0330512 0 0 Z M-15.75 26.4375 C-17.47167111 29.06001483 -17.47167111 29.06001483 -17.3125 31.3125 C-6.4225 31.3125 4.4675 31.3125 15.6875 31.3125 C14.57339152 25.74195758 13.73741855 24.83606348 9.578125 21.5390625 C6.91131049 19.80893903 4.85370217 19.44173274 1.6875 19.3125 C0.388125 19.209375 -0.91125 19.10625 -2.25 19 C-8.3498346 19.10496847 -12.07409449 21.72480062 -15.75 26.4375 Z " fill="#FEFEFE" transform="translate(419.3125,124.6875)"/>
<path d="M0 0 C8.16200577 6.29640445 12.99711197 15.68942939 14.32421875 25.79296875 C14.46011035 28.04040683 14.54309441 30.2916412 14.57421875 32.54296875 C14.6 33.6721875 14.62578125 34.80140625 14.65234375 35.96484375 C14.5440625 36.898125 14.43578125 37.83140625 14.32421875 38.79296875 C10.9577395 41.03728825 9.86799229 41.03802035 5.93481445 41.02001953 C4.83389969 41.01986847 3.73298492 41.01971741 2.59870911 41.01956177 C0.8173481 41.00407791 0.8173481 41.00407791 -1 40.98828125 C-2.21653763 40.98545135 -3.43307526 40.98262146 -4.68647766 40.97970581 C-8.57884483 40.96849478 -12.47098341 40.94338823 -16.36328125 40.91796875 C-18.99934564 40.90794016 -21.63541363 40.8988141 -24.27148438 40.890625 C-30.73966157 40.86855241 -37.20770508 40.83506563 -43.67578125 40.79296875 C-43.18078125 41.57671875 -42.68578125 42.36046875 -42.17578125 43.16796875 C-40.67578125 45.79296875 -40.67578125 45.79296875 -40.67578125 47.79296875 C-26.9135862 51.77835754 -26.9135862 51.77835754 -13.59765625 48.05859375 C-11.16100381 46.45396898 -8.92978871 44.64280935 -6.67578125 42.79296875 C-5.69996094 43.35886719 -4.72414063 43.92476562 -3.71875 44.5078125 C-2.433676 45.24884057 -1.14851521 45.98971814 0.13671875 46.73046875 C0.77931641 47.10365234 1.42191406 47.47683594 2.08398438 47.86132812 C4.80738299 49.4276351 7.33529997 50.79666249 10.32421875 51.79296875 C6.41917387 60.35043551 -1.28529043 65.14036287 -9.67578125 68.79296875 C-22.57988367 73.17826535 -36.58276362 71.69018105 -48.67578125 65.79296875 C-57.08657555 60.82295394 -63.04807874 53.30107627 -66.14453125 44.01171875 C-69.18749843 31.30285583 -67.30830512 19.94858994 -60.67578125 8.79296875 C-55.15700716 0.41965634 -47.00924111 -3.38090598 -37.67578125 -6.20703125 C-36.75925781 -6.49900391 -36.75925781 -6.49900391 -35.82421875 -6.796875 C-23.16635532 -9.2133762 -10.81200898 -6.87419723 0 0 Z M-41.05078125 17.23046875 C-42.92114263 19.88268307 -42.92114263 19.88268307 -43.67578125 23.79296875 C-32.78578125 23.79296875 -21.89578125 23.79296875 -10.67578125 23.79296875 C-11.78989363 18.22240684 -12.62617328 17.31989769 -16.78125 14.01953125 C-19.43395237 12.30211157 -21.53240073 11.92394294 -24.67578125 11.79296875 C-25.81015625 11.71046875 -26.94453125 11.62796875 -28.11328125 11.54296875 C-33.50798024 11.92154412 -37.25377843 13.3335448 -41.05078125 17.23046875 Z " fill="#FEFEFE" transform="translate(686.67578125,132.20703125)"/>
<path d="M0 0 C0.91644287 0.00523682 1.83288574 0.01047363 2.77709961 0.01586914 C3.76645508 0.0190918 4.75581055 0.02231445 5.77514648 0.02563477 C6.81606445 0.03401367 7.85698242 0.04239258 8.92944336 0.05102539 C10.49662109 0.05779297 10.49662109 0.05779297 12.09545898 0.06469727 C14.68600996 0.07652627 17.27644895 0.0930085 19.86694336 0.11352539 C19.87574272 0.99223045 19.87574272 0.99223045 19.88471985 1.88868713 C19.94882731 8.00504308 20.03329137 14.12088129 20.12939453 20.23681641 C20.16257702 22.51702025 20.1906296 24.79730492 20.21337891 27.07763672 C20.24704718 30.36208421 20.29937062 33.64579553 20.35522461 36.92993164 C20.36161453 37.94374405 20.36800446 38.95755646 20.37458801 40.00209045 C20.49370475 45.78196409 21.06909012 50.01457358 23.86694336 55.11352539 C27.89341817 58.14384531 33.05840492 57.74479219 37.86694336 57.11352539 C42.03319157 54.77001077 43.37811265 52.54932703 44.86694336 48.11352539 C45.18750771 45.67418611 45.18750771 45.67418611 45.18579102 43.13964844 C45.20566071 42.17903 45.2255304 41.21841156 45.2460022 40.22868347 C45.25755341 39.20454849 45.26910461 38.18041351 45.28100586 37.12524414 C45.30037201 36.06690872 45.31973816 35.0085733 45.33969116 33.91816711 C45.39935584 30.54586791 45.44582029 27.17353433 45.49194336 23.80102539 C45.53013517 21.51129716 45.5691876 19.22158311 45.60913086 16.93188477 C45.70504662 11.32589108 45.79013247 5.71981163 45.86694336 0.11352539 C49.51276023 0.08465027 53.15854799 0.06676954 56.80444336 0.05102539 C58.36582031 0.03845703 58.36582031 0.03845703 59.95874023 0.02563477 C60.9480957 0.02241211 61.93745117 0.01918945 62.95678711 0.01586914 C64.33145142 0.00801392 64.33145142 0.00801392 65.73388672 0 C67.86694336 0.11352539 67.86694336 0.11352539 68.86694336 1.11352539 C68.96137671 3.41406374 68.98436464 5.71754712 68.98046875 8.02001953 C68.98061478 8.74192978 68.9807608 9.46384003 68.98091125 10.20762634 C68.98021205 12.60467486 68.97241931 15.00164662 68.96459961 17.39868164 C68.96273546 19.05635028 68.96131154 20.71401946 68.96031189 22.37168884 C68.95648648 26.74306753 68.94665601 31.1144132 68.93560791 35.48577881 C68.92539427 39.94307 68.92081437 44.40036651 68.91577148 48.85766602 C68.90503376 57.60963432 68.88795707 66.36157575 68.86694336 75.11352539 C61.70095033 77.50218973 53.23508091 76.24708501 45.86694336 75.11352539 C45.86694336 74.12352539 45.86694336 73.13352539 45.86694336 72.11352539 C45.26108398 72.39067383 44.65522461 72.66782227 44.03100586 72.95336914 C37.92974521 75.59099105 32.50410436 76.89942342 25.86694336 77.11352539 C24.42061523 77.18506836 24.42061523 77.18506836 22.94506836 77.25805664 C16.82663778 76.97076993 10.56060155 74.37136754 5.86303711 70.43383789 C4.354591 68.73258288 3.08995849 67.02799784 1.86694336 65.11352539 C1.28944336 64.24727539 0.71194336 63.38102539 0.11694336 62.48852539 C-4.17854527 50.89070609 -3.41359274 38.13320006 -3.33886719 25.96166992 C-3.32035031 22.82861378 -3.31835977 19.69584986 -3.31860352 16.56274414 C-3.31369667 14.57446031 -3.30787202 12.58617849 -3.30102539 10.59790039 C-3.29991257 9.65952332 -3.29879974 8.72114624 -3.2976532 7.7543335 C-3.29127335 6.89543518 -3.28489349 6.03653687 -3.27832031 5.15161133 C-3.27450851 4.39362244 -3.27069672 3.63563354 -3.26676941 2.85467529 C-3.06532704 0.23157978 -2.61794642 0.13933216 0 0 Z " fill="#FEFEFE" transform="translate(717.133056640625,125.886474609375)"/>
<path d="M0 0 C-1.62184501 3.58513106 -3.79256239 6.58992323 -6.125 9.75 C-6.84945312 10.73484375 -7.57390625 11.7196875 -8.3203125 12.734375 C-9.15175781 13.85585937 -9.15175781 13.85585937 -10 15 C-13.65787583 14.36614426 -16.91937176 13.34660585 -20.375 12 C-27.23192043 9.47812591 -32.02254443 8.24147106 -39 11 C-39.66 11 -40.32 11 -41 11 C-40.59442398 13.50798363 -40.59442398 13.50798363 -39 16 C-36.22868243 17.00581811 -33.86264171 17.65176701 -31 18.1875 C-30.23051025 18.3512915 -29.46102051 18.51508301 -28.66821289 18.68383789 C-25.43302814 19.36423077 -22.19380755 19.96741071 -18.93359375 20.515625 C-11.49560613 21.77274967 -6.68192276 24.55128792 -1.125 29.625 C2.58853035 35.52295996 3.66195462 41.94874203 2.375 48.8125 C0.27485864 56.30345006 -4.14653864 60.55634158 -10.5625 64.625 C-22.92323921 69.56929569 -38.11798379 69.4790389 -50.48046875 64.63671875 C-55.49940431 62.35125996 -60.3053556 59.89632757 -65 57 C-64.4046142 52.91168418 -62.14413222 49.9886643 -59.75 46.75 C-59.17572266 45.91855469 -59.17572266 45.91855469 -58.58984375 45.0703125 C-56.69066405 42.49149324 -55.58155404 41.12188258 -52.390625 40.453125 C-49.61511162 41.08804636 -48.83945553 41.89336098 -47 44 C-39.02191402 47.84130066 -29.66069062 49.12098546 -21 47 C-21 45.02 -21 43.04 -21 41 C-26.70583174 39.52942481 -32.39252366 38.07686174 -38.1875 37 C-46.70977557 35.32012837 -55.35558745 33.26825206 -60.54296875 25.76953125 C-64.08044263 19.37829694 -65.25159538 13.95274173 -63.453125 6.8359375 C-61.290423 0.41992157 -58.08113469 -3.93407635 -51.96630859 -7.16210938 C-34.18399029 -14.73957603 -15.47540537 -9.70536591 0 0 Z " fill="#FEFEFE" transform="translate(366,135)"/>
<path d="M0 0 C0 6.27 0 12.54 0 19 C4.62 19 9.24 19 14 19 C14.86353465 23.31767325 15.13413513 26.88340807 15.125 31.25 C15.12886719 33.11398438 15.12886719 33.11398438 15.1328125 35.015625 C15 38 15 38 14 39 C11.64686445 39.07271741 9.29166332 39.08370868 6.9375 39.0625 C5.64714844 39.05347656 4.35679687 39.04445312 3.02734375 39.03515625 C2.02832031 39.02355469 1.02929688 39.01195312 0 39 C0.09366362 43.91162893 0.19978596 48.82277241 0.31738281 53.73388672 C0.35562857 55.40405941 0.39048915 57.07431323 0.421875 58.74462891 C0.46762161 61.14775557 0.52559925 63.55032584 0.5859375 65.953125 C0.59748871 66.69806213 0.60903992 67.44299927 0.62094116 68.21051025 C0.74325931 73.4300489 0.74325931 73.4300489 3 78 C5.64787088 78.70373017 5.64787088 78.70373017 8.625 78.75 C10.39875 78.8325 12.1725 78.915 14 79 C14 84.94 14 90.88 14 97 C7.43826138 100.28086931 -4.51744457 98.92655144 -11.40625 97.09375 C-16.40796942 94.74354449 -19.52234797 92.06302807 -22 87 C-22.88615479 84.10655645 -23.12220236 81.52641994 -23.11352539 78.50683594 C-23.11344986 77.62622498 -23.11337433 76.74561401 -23.11329651 75.83831787 C-23.10813522 74.89651672 -23.10297394 73.95471558 -23.09765625 72.984375 C-23.0962413 72.01340881 -23.09482635 71.04244263 -23.09336853 70.04205322 C-23.08777663 66.94467065 -23.07522559 63.84736068 -23.0625 60.75 C-23.05748395 58.64843854 -23.05292123 56.54687596 -23.04882812 54.4453125 C-23.03780985 49.29684708 -23.02055074 44.14843584 -23 39 C-24.299375 39.020625 -25.59875 39.04125 -26.9375 39.0625 C-28.29165633 39.08399454 -29.64756083 39.07148199 -31 39 C-32 38 -32 38 -32.11352539 36.23413086 C-32.10828857 35.48526611 -32.10305176 34.73640137 -32.09765625 33.96484375 C-32.09443359 33.15595703 -32.09121094 32.34707031 -32.08789062 31.51367188 C-32.07951172 30.66353516 -32.07113281 29.81339844 -32.0625 28.9375 C-32.05798828 28.08349609 -32.05347656 27.22949219 -32.04882812 26.34960938 C-32.03700373 24.23304337 -32.01906769 22.11651315 -32 20 C-28.846632 19.29925156 -26.27275026 19 -23 19 C-23.01160156 17.71222656 -23.02320313 16.42445312 -23.03515625 15.09765625 C-23.0445327 13.41927228 -23.05363305 11.74088674 -23.0625 10.0625 C-23.07087891 9.21236328 -23.07925781 8.36222656 -23.08789062 7.48632812 C-23.09111328 6.67744141 -23.09433594 5.86855469 -23.09765625 5.03515625 C-23.10289307 4.2862915 -23.10812988 3.53742676 -23.11352539 2.76586914 C-23 1 -23 1 -22 0 C-20.00697346 -0.2669232 -18.00425422 -0.46261829 -16 -0.625 C-14.906875 -0.72039062 -13.81375 -0.81578125 -12.6875 -0.9140625 C-9 -1 -9 -1 0 0 Z " fill="#FEFEFE" transform="translate(501,105)"/>
<path d="M0 0 C1.00160156 0.00644531 2.00320313 0.01289062 3.03515625 0.01953125 C5.9375 0.1875 5.9375 0.1875 10.9375 1.1875 C10.9375 7.4575 10.9375 13.7275 10.9375 20.1875 C14.3715625 20.1565625 14.3715625 20.1565625 17.875 20.125 C20.22916332 20.10379132 22.58436445 20.11478259 24.9375 20.1875 C26.4595959 21.7095959 26.06709521 23.06960082 26.0703125 25.1875 C26.07224609 26.3940625 26.07224609 26.3940625 26.07421875 27.625 C26.07035156 28.470625 26.06648437 29.31625 26.0625 30.1875 C26.06830078 31.4559375 26.06830078 31.4559375 26.07421875 32.75 C26.07292969 33.554375 26.07164062 34.35875 26.0703125 35.1875 C26.06918457 35.93 26.06805664 36.6725 26.06689453 37.4375 C25.9375 39.1875 25.9375 39.1875 24.9375 40.1875 C22.58436445 40.26021741 20.22916332 40.27120868 17.875 40.25 C16.58464844 40.24097656 15.29429687 40.23195312 13.96484375 40.22265625 C12.96582031 40.21105469 11.96679688 40.19945312 10.9375 40.1875 C11.03116362 45.09912893 11.13728596 50.01027241 11.25488281 54.92138672 C11.29312857 56.59155941 11.32798915 58.26181323 11.359375 59.93212891 C11.40512161 62.33525557 11.46309925 64.73782584 11.5234375 67.140625 C11.53498871 67.88556213 11.54653992 68.63049927 11.55844116 69.39801025 C11.68075931 74.6175489 11.68075931 74.6175489 13.9375 79.1875 C16.58537088 79.89123017 16.58537088 79.89123017 19.5625 79.9375 C21.33625 80.02 23.11 80.1025 24.9375 80.1875 C24.9375 86.1275 24.9375 92.0675 24.9375 98.1875 C18.66916781 101.32166609 6.79942317 99.77319758 0.1875 98 C-3.88549291 96.50633876 -6.45427093 94.744176 -9.0625 91.1875 C-11.91399674 84.92172818 -12.47310943 79.83241786 -12.35546875 73 C-12.35122391 72.05688965 -12.34697906 71.1137793 -12.34260559 70.14208984 C-12.3259357 67.15692482 -12.28830575 64.17245782 -12.25 61.1875 C-12.23493804 59.15235356 -12.22125229 57.11719645 -12.20898438 55.08203125 C-12.17607055 50.1169223 -12.12436999 45.15232913 -12.0625 40.1875 C-13.361875 40.208125 -14.66125 40.22875 -16 40.25 C-17.35415633 40.27149454 -18.71006083 40.25898199 -20.0625 40.1875 C-21.0625 39.1875 -21.0625 39.1875 -21.17602539 37.42163086 C-21.17078857 36.67276611 -21.16555176 35.92390137 -21.16015625 35.15234375 C-21.15693359 34.34345703 -21.15371094 33.53457031 -21.15039062 32.70117188 C-21.14201172 31.85103516 -21.13363281 31.00089844 -21.125 30.125 C-21.12048828 29.27099609 -21.11597656 28.41699219 -21.11132812 27.53710938 C-21.09950373 25.42054337 -21.08156769 23.30401315 -21.0625 21.1875 C-19.0625 20.1875 -19.0625 20.1875 -12.0625 20.1875 C-12.0625 14.2475 -12.0625 8.3075 -12.0625 2.1875 C-7.20519513 0.56839838 -4.82947206 -0.06854735 0 0 Z " fill="#FEFEFE" transform="translate(545.0625,103.8125)"/>
<path d="M0 0 C0.91644287 0.00523682 1.83288574 0.01047363 2.77709961 0.01586914 C3.76645508 0.0190918 4.75581055 0.02231445 5.77514648 0.02563477 C6.81606445 0.03401367 7.85698242 0.04239258 8.92944336 0.05102539 C10.49662109 0.05779297 10.49662109 0.05779297 12.09545898 0.06469727 C14.68600996 0.07652627 17.27644895 0.0930085 19.86694336 0.11352539 C20.66017843 2.9150058 20.99239924 5.40005463 20.993927 8.30827332 C20.99674683 9.13691391 20.99956665 9.9655545 21.00247192 10.81930542 C21.00044769 11.71972565 20.99842346 12.62014587 20.99633789 13.54785156 C20.99809021 14.50267929 20.99984253 15.45750702 21.00164795 16.44126892 C21.0060484 19.59636249 21.0031355 22.7514 20.99975586 25.90649414 C21.00042925 28.09556591 21.00139957 30.2846376 21.00265503 32.47370911 C21.00412941 37.0593029 21.00198512 41.64487722 20.99731445 46.23046875 C20.99160723 52.12226244 20.99490409 58.01401069 21.00088692 63.90580273 C21.00449091 68.42406053 21.00335487 72.94230745 21.00075912 77.46056557 C21.00008993 79.63399575 21.00091802 81.8074269 21.00323868 83.98085594 C21.00576364 87.00972509 21.0019273 90.03851928 20.99633789 93.06738281 C20.99836212 93.97387573 21.00038635 94.88036865 21.00247192 95.81433105 C20.98120782 101.99926093 20.98120782 101.99926093 19.86694336 103.11352539 C18.23221454 103.20052881 16.59380281 103.22053602 14.95678711 103.21118164 C13.96743164 103.20795898 12.97807617 103.20473633 11.95874023 103.20141602 C10.91782227 103.19303711 9.8769043 103.1846582 8.80444336 103.17602539 C7.7596582 103.17151367 6.71487305 103.16700195 5.63842773 103.16235352 C3.04787676 103.15052452 0.45743777 103.13404228 -2.13305664 103.11352539 C-2.28661789 89.83170928 -2.43479968 76.54984528 -2.57602024 63.26789188 C-2.64175821 57.10124985 -2.70938349 50.93464031 -2.78125 44.76806641 C-2.85047367 38.82240834 -2.91483386 32.87671609 -2.97575188 26.93096733 C-2.99991811 24.65703847 -3.02586819 22.38312787 -3.05359077 20.10923958 C-3.09197632 16.9362995 -3.12414732 13.76335501 -3.15478516 10.59033203 C-3.17420418 9.16506195 -3.17420418 9.16506195 -3.1940155 7.71099854 C-3.21202476 5.51182069 -3.17837569 3.31230999 -3.13305664 1.11352539 C-2.13305664 0.11352539 -2.13305664 0.11352539 0 0 Z " fill="#FEFEFE" transform="translate(586.133056640625,97.886474609375)"/>
<path d="" fill="#FFFFFF" transform="translate(0,0)"/>
</svg>
