<?xml version="1.0" encoding="UTF-8"?>
<svg version="1.1" xmlns="http://www.w3.org/2000/svg" width="868" height="286">
<path d="M0 0 C6.6 0 13.2 0 20 0 C20 4.95 20 9.9 20 15 C22.10366943 14.94763184 24.20733887 14.89526367 26.37475586 14.84130859 C33.351134 14.67508123 40.32760327 14.56494731 47.30544186 14.48187828 C51.53355696 14.42984154 55.75963161 14.35935963 59.98657227 14.24560547 C64.07164362 14.13636635 68.15476244 14.0770423 72.24118233 14.05122757 C73.79427384 14.03285092 75.34726684 13.99696067 76.89951897 13.94269943 C89.03901907 13.53550278 89.03901907 13.53550278 93.92939758 17.18772888 C96.20044102 19.68750233 98.12506632 22.19591191 100 25 C101.23169922 26.47919922 101.23169922 26.47919922 102.48828125 27.98828125 C103.39126953 29.13876953 103.39126953 29.13876953 104.3125 30.3125 C104.92738281 31.09238281 105.54226563 31.87226562 106.17578125 32.67578125 C106.77777344 33.44277344 107.37976563 34.20976563 108 35 C109.33191054 36.66780391 110.6648703 38.33477201 112 40 C110.5385305 44.56181231 107.93750873 47.72326484 104.8125 51.25 C103.87947905 52.31593367 102.94852862 53.38368282 102.01953125 54.453125 C101.54716034 54.97554276 101.07478943 55.49796051 100.58810425 56.03620911 C98.9290587 57.9679787 98.9290587 57.9679787 97.75161743 60.28422546 C96.07518925 63.11044901 94.59385415 64.96032864 92 67 C86.51619643 68.27187344 81.16490075 68.05132909 75.56640625 67.87890625 C73.96218956 67.8621018 72.35792641 67.84929929 70.75364685 67.84031677 C66.54874181 67.8060938 62.34667385 67.71782136 58.1428833 67.61798096 C53.84629699 67.52559983 49.54924815 67.48474276 45.25195312 67.43945312 C36.83333918 67.34318066 28.41702333 67.18976061 20 67 C20 70.63 20 74.26 20 78 C25.61 78 31.22 78 37 78 C37 95.16 37 112.32 37 130 C31.39 130 25.78 130 20 130 C20 147.49 20 164.98 20 183 C34.52 183 49.04 183 64 183 C64 189.93 64 196.86 64 204 C28.36 204 -7.28 204 -44 204 C-44 197.07 -44 190.14 -44 183 C-29.48 183 -14.96 183 0 183 C0 165.51 0 148.02 0 130 C-5.02089844 130.11601562 -10.04179687 130.23203125 -15.21484375 130.3515625 C-18.40963564 130.4027036 -21.60391786 130.45084162 -24.79882812 130.48828125 C-29.86248496 130.54790258 -34.92432158 130.61816076 -39.98657227 130.75439453 C-44.07164362 130.86363365 -48.15476244 130.9229577 -52.24118233 130.94877243 C-53.79427384 130.96714908 -55.34726684 131.00303933 -56.89951897 131.05730057 C-69.03707253 131.46443193 -69.03707253 131.46443193 -73.92047119 127.82119751 C-76.19330385 125.31880162 -78.11687143 122.80240142 -80 120 C-80.90035981 118.90782877 -81.81206063 117.82474726 -82.7421875 116.7578125 C-83.44601563 115.88898438 -84.14984375 115.02015625 -84.875 114.125 C-85.59429687 113.24070312 -86.31359375 112.35640625 -87.0546875 111.4453125 C-88.74273569 109.32338847 -90.38788708 107.17990111 -92 105 C-90.34191827 101.05490898 -87.65431656 98.06437966 -84.875 94.875 C-83.95415067 93.81126025 -83.03492718 92.74611126 -82.1171875 91.6796875 C-81.40065506 90.87860565 -81.40065506 90.87860565 -80.66964722 90.06134033 C-78.91855266 88.00316003 -78.91855266 88.00316003 -77.51907349 85.48748779 C-74.74066627 81.13149215 -72.67261937 78.42527873 -67.54098511 77.12051392 C-63.22154804 76.84200671 -59.00843969 76.87291891 -54.6875 77.0234375 C-53.10714209 77.04211467 -51.52672584 77.05633706 -49.94628906 77.0663147 C-45.80846165 77.10429887 -41.67420686 77.202335 -37.53778076 77.31335449 C-33.30823091 77.41609495 -29.07809719 77.46141653 -24.84765625 77.51171875 C-16.56347378 77.61861371 -8.28218259 77.7890225 0 78 C0 74.37 0 70.74 0 67 C-5.61 67 -11.22 67 -17 67 C-17 49.84 -17 32.68 -17 15 C-11.39 15 -5.78 15 0 15 C0 10.05 0 5.1 0 0 Z " fill="#000000" transform="translate(166,37)"/>
<path d="M0 0 C8.8597419 6.47005005 14.00313629 15.70318145 16.125 26.3125 C16.125 31.5925 16.125 36.8725 16.125 42.3125 C-4.005 42.3125 -24.135 42.3125 -44.875 42.3125 C-41.88125559 48.29998882 -40.24348736 50.98321008 -34.11328125 53.40234375 C-27.72846316 55.19687043 -20.71912116 55.29501458 -14.4375 53.125 C-11.98147513 51.47616127 -11.98147513 51.47616127 -10.40234375 49.9296875 C-8.875 48.5 -8.875 48.5 -5.875 46.3125 C-1.42995209 47.33449163 2.16303505 49.33240013 6 51.75 C6.96679688 52.34683594 7.93359375 52.94367188 8.9296875 53.55859375 C10.01636719 54.42677734 10.01636719 54.42677734 11.125 55.3125 C11.125 59.24349775 9.96961591 59.93024235 7.25 62.6875 C-2.18157656 71.82201903 -13.90588753 75.4099075 -26.875 75.3125 C-39.5194864 73.88031838 -51.2797998 70.10660151 -59.875 60.3125 C-67.35655024 49.48919066 -69.58788002 37.33552449 -67.375 24.38671875 C-64.87228949 14.10569773 -59.50421076 6.0257539 -50.84765625 -0.12890625 C-35.35427405 -9.51458986 -15.4418342 -9.38006511 0 0 Z M-42.52734375 19.6171875 C-44.33304175 21.6238119 -44.33304175 21.6238119 -44.875 26.3125 C-32.665 26.3125 -20.455 26.3125 -7.875 26.3125 C-8.96976425 20.83867873 -9.80732295 19.82549381 -13.875 16.3125 C-24.14520067 9.46569956 -33.62464365 12.19489083 -42.52734375 19.6171875 Z " fill="#000000" transform="translate(720.875,118.6875)"/>
<path d="M0 0 C8.23099829 6.11089267 13.3237809 14.73999826 15.3203125 24.72265625 C15.3203125 30.33265625 15.3203125 35.94265625 15.3203125 41.72265625 C-4.8096875 41.72265625 -24.9396875 41.72265625 -45.6796875 41.72265625 C-42.6859827 47.71006586 -41.04804407 50.40191841 -34.91015625 52.80859375 C-28.21026269 54.70433147 -20.50929358 55.01880061 -14.1171875 51.97265625 C-11.22649413 50.26146356 -8.87608131 48.28511569 -6.6796875 45.72265625 C-2.14121552 47.0719317 1.63963496 48.91424973 5.6953125 51.34765625 C6.75492187 51.97929687 7.81453125 52.6109375 8.90625 53.26171875 C9.70289063 53.74382812 10.49953125 54.2259375 11.3203125 54.72265625 C6.85761458 64.00666175 -0.48859475 68.92974169 -9.9921875 72.53515625 C-22.7385434 76.2630747 -36.25002782 75.03762991 -48.2421875 69.34765625 C-57.52467602 64.13965939 -63.07624945 57.23125137 -67.0546875 47.28515625 C-69.40905217 33.86527764 -69.57532953 20.42584139 -61.6796875 8.72265625 C-46.72658272 -9.82180558 -19.66559873 -12.54529574 0 0 Z M-43.6796875 19.72265625 C-44.3396875 21.70265625 -44.9996875 23.68265625 -45.6796875 25.72265625 C-33.1396875 25.72265625 -20.5996875 25.72265625 -7.6796875 25.72265625 C-10.1526862 19.22257034 -10.1526862 19.22257034 -14.6171875 15.34765625 C-15.28621094 14.86554688 -15.95523438 14.3834375 -16.64453125 13.88671875 C-25.98700798 8.54303724 -36.70935481 12.58636326 -43.6796875 19.72265625 Z " fill="#000000" transform="translate(467.6796875,119.27734375)"/>
<path d="M0 0 C7.26 0 14.52 0 22 0 C22.03738281 3.52816406 22.07476563 7.05632812 22.11328125 10.69140625 C22.15953368 14.12026051 22.21075396 17.54900722 22.26245117 20.9777832 C22.29564115 23.35499499 22.32369141 25.73228446 22.34643555 28.10961914 C22.38008986 31.53305058 22.43241301 34.95577396 22.48828125 38.37890625 C22.49467117 39.43646622 22.5010611 40.49402618 22.50764465 41.58363342 C22.63821518 48.18340698 22.96470597 53.97727448 27.88671875 58.87890625 C32.22901609 61.18249098 37.36720334 61.78298785 42.1015625 60.375 C46.55811022 58.09931606 48.28936811 55.5702003 50 51 C50.46050383 47.08740858 50.48852617 43.19441096 50.51171875 39.2578125 C50.52966995 38.13430389 50.54762115 37.01079529 50.56611633 35.85324097 C50.62014614 32.27719841 50.65409246 28.70128881 50.6875 25.125 C50.72067944 22.69529403 50.75516967 20.26560559 50.79101562 17.8359375 C50.87832752 11.89060661 50.93846166 5.94587673 51 0 C58.26 0 65.52 0 73 0 C73 26.07 73 52.14 73 79 C65.74 79 58.48 79 51 79 C50.67 77.35 50.34 75.7 50 74 C49.45730469 74.34933594 48.91460938 74.69867188 48.35546875 75.05859375 C47.64003906 75.51363281 46.92460938 75.96867187 46.1875 76.4375 C45.47980469 76.88996094 44.77210938 77.34242188 44.04296875 77.80859375 C37.25221206 81.76878647 26.34506439 81.03402889 18.83203125 79.24609375 C11.3119383 76.34499889 6.34959232 72.47594428 3 65 C-0.0233797 57.3103668 -0.40316873 50.1871242 -0.29296875 41.9921875 C-0.28872391 40.7855545 -0.28447906 39.57892151 -0.28010559 38.33572388 C-0.26343155 34.51524707 -0.2257995 30.695315 -0.1875 26.875 C-0.17243863 24.270841 -0.15875278 21.66667366 -0.14648438 19.0625 C-0.11356484 12.70812627 -0.06186022 6.35415521 0 0 Z " fill="#000000" transform="translate(753,113)"/>
<path d="M0 0 C0.72445312 0.30164063 1.44890625 0.60328125 2.1953125 0.9140625 C7.0103519 3.09948629 8.95634446 4.95634446 13 9 C9.37 13.62 5.74 18.24 2 23 C-1.86656613 21.71114462 -5.5475401 20.38098396 -9.3125 18.875 C-15.50198365 16.61815426 -20.74991614 15.93874813 -27.0625 18 C-27.701875 18.33 -28.34125 18.66 -29 19 C-29 20.65 -29 22.3 -29 24 C-27.42025391 24.36351562 -27.42025391 24.36351562 -25.80859375 24.734375 C-21.9825214 25.6193412 -18.16251248 26.52839088 -14.34375 27.44433594 C-12.16978888 27.95974589 -9.991932 28.45368775 -7.8125 28.9453125 C0.47922043 30.93465672 6.93328187 32.90786297 12.36328125 39.70703125 C16.35385855 46.22086017 15.83794728 54.06994124 14.59765625 61.3671875 C12.60728627 68.05378991 7.58283028 71.83882657 1.8046875 75.32421875 C-9.99541883 80.73101988 -27.21601893 79.69645742 -39.15234375 75.27734375 C-49.00940927 70.85586168 -49.00940927 70.85586168 -53 68 C-53.33 67.01 -53.66 66.02 -54 65 C-52.43152656 62.48164732 -50.84365137 60.17081064 -49.0625 57.8125 C-48.34030273 56.83120117 -48.34030273 56.83120117 -47.60351562 55.83007812 C-46.41153616 54.21323469 -45.20693447 52.60571072 -44 51 C-39.20684639 52.133433 -34.76057441 54.02243615 -30.19140625 55.84375 C-25.89766701 57.39937646 -21.99593563 58.14786143 -17.4375 58.1875 C-16.69371094 58.20167969 -15.94992187 58.21585938 -15.18359375 58.23046875 C-12.68068971 57.9662982 -11.10594704 57.37142246 -9 56 C-8.18828772 53.44480079 -8.18828772 53.44480079 -8 51 C-13.76522243 48.66488703 -19.27121798 47.24389343 -25.375 46.125 C-34.69793166 44.26545163 -43.80194563 42.06365612 -49.875 34.14453125 C-53.29125079 27.63230318 -53.75232244 19.97633318 -51.76171875 12.96484375 C-49.35650403 6.76062322 -45.31240968 2.57363744 -39.3359375 -0.265625 C-26.98152942 -4.37289523 -12.1375626 -5.35884839 0 0 Z " fill="#000000" transform="translate(372,115)"/>
<path d="M0 0 C6.93 0 13.86 0 21 0 C21 6.93 21 13.86 21 21 C26.28 21 31.56 21 37 21 C37 27.27 37 33.54 37 40 C31.72 40 26.44 40 21 40 C21.09743226 44.55367616 21.20046406 49.10654499 21.31738281 53.65966797 C21.35543978 55.20549035 21.39033132 56.75139428 21.421875 58.29736328 C21.46803654 60.53187018 21.5259398 62.76582671 21.5859375 65 C21.59748871 65.68054443 21.60903992 66.36108887 21.62094116 67.06225586 C21.76979989 72.00741373 22.50354973 76.30725436 24 81 C28.24061856 83.31306467 31.02312595 83 36 83 C36 89.27 36 95.54 36 102 C25.90870028 104.01825994 16.3207567 103.22396995 6.625 99.8125 C3.19279582 97.44264473 1.42851205 94.85525952 0 91 C-0.52868698 87.04446435 -0.46683546 83.1448296 -0.390625 79.16015625 C-0.38496521 78.03806259 -0.37930542 76.91596893 -0.37347412 75.75987244 C-0.35117341 72.19363849 -0.30098649 68.62842772 -0.25 65.0625 C-0.22992695 62.63738435 -0.2116776 60.21225288 -0.1953125 57.78710938 C-0.15132891 51.85768169 -0.08234302 45.92901403 0 40 C-3.3 40 -6.6 40 -10 40 C-10 33.73 -10 27.46 -10 21 C-6.7 21 -3.4 21 0 21 C0 14.07 0 7.14 0 0 Z " fill="#000000" transform="translate(563,91)"/>
<path d="M0 0 C6.93 0 13.86 0 21 0 C21 6.93 21 13.86 21 21 C26.28 21 31.56 21 37 21 C37 27.27 37 33.54 37 40 C31.72 40 26.44 40 21 40 C21.07444144 44.53579386 21.15765458 49.06977154 21.26245117 53.60473633 C21.29546921 55.14369926 21.32357122 56.68277656 21.34643555 58.22192383 C21.47413985 66.59334865 21.6764282 74.16777584 25 82 C28.63 82.33 32.26 82.66 36 83 C36 89.27 36 95.54 36 102 C26.01639865 103.66393356 15.83439407 104.02524137 6.625 99.25 C2.87441079 96.03520924 0.33970718 93.45251868 -0.34729004 88.49273682 C-0.4627257 85.40664693 -0.4493991 82.34551707 -0.390625 79.2578125 C-0.38213531 77.57254959 -0.38213531 77.57254959 -0.37347412 75.85324097 C-0.351144 72.27672109 -0.30095146 68.70121537 -0.25 65.125 C-0.22993076 62.695327 -0.21168073 60.26563825 -0.1953125 57.8359375 C-0.15128983 51.89023625 -0.08228337 45.94528988 0 40 C-3.3 40 -6.6 40 -10 40 C-10 33.73 -10 27.46 -10 21 C-6.7 21 -3.4 21 0 21 C0 14.07 0 7.14 0 0 Z " fill="#000000" transform="translate(505,91)"/>
<path d="M0 0 C7.59 0 15.18 0 23 0 C23.02254828 13.9337962 23.04091349 27.86758037 23.05181217 41.80139065 C23.05704168 48.2706768 23.06414056 54.73994989 23.07543945 61.20922852 C23.08626592 67.446703 23.09227632 73.68416487 23.09487724 79.92164803 C23.09673193 82.30720277 23.10035336 84.69275679 23.10573006 87.0783062 C23.11293729 90.40695591 23.11399108 93.73555279 23.11352539 97.06420898 C23.11712067 98.06114273 23.12071594 99.05807648 23.12442017 100.08522034 C23.1230455 100.98690948 23.12167084 101.88859863 23.12025452 102.81761169 C23.12117631 103.6057447 23.1220981 104.3938777 23.12304783 105.20589352 C23 107 23 107 22 108 C20.45044441 108.09899523 18.89646327 108.13079524 17.34375 108.1328125 C15.93416016 108.13474609 15.93416016 108.13474609 14.49609375 108.13671875 C13.01302734 108.13091797 13.01302734 108.13091797 11.5 108.125 C10.51128906 108.12886719 9.52257812 108.13273437 8.50390625 108.13671875 C7.56417969 108.13542969 6.62445312 108.13414062 5.65625 108.1328125 C4.78806641 108.13168457 3.91988281 108.13055664 3.02539062 108.12939453 C1 108 1 108 0 107 C-0.09543095 105.60856311 -0.12188575 104.21231633 -0.12025452 102.81761169 C-0.12162918 101.91592255 -0.12300385 101.0142334 -0.12442017 100.08522034 C-0.12082489 99.08828659 -0.11722961 98.09135284 -0.11352539 97.06420898 C-0.11367142 96.02043091 -0.11381744 94.97665283 -0.1139679 93.90124512 C-0.11326826 90.43284057 -0.10547353 86.96448897 -0.09765625 83.49609375 C-0.09579225 81.09855682 -0.09436826 78.7010195 -0.09336853 76.30348206 C-0.08954194 69.97904416 -0.07971046 63.65462906 -0.06866455 57.3302002 C-0.05845345 50.88224598 -0.05387156 44.43428809 -0.04882812 37.98632812 C-0.03808831 25.3242071 -0.02049038 12.66210901 0 0 Z " fill="#000000" transform="translate(615,84)"/>
</svg>
