<?xml version="1.0" encoding="UTF-8"?>
<svg xmlns="http://www.w3.org/2000/svg" xmlns:xlink="http://www.w3.org/1999/xlink" width="240px" height="80px" viewBox="0 0 303 100" version="1.1">
<g id="surface1">
<path style=" stroke:none;fill-rule:nonzero;fill:rgb(0%,0%,0%);fill-opacity:1;" d="M 57.945312 12.9375 C 60.25 12.9375 62.554688 12.9375 64.929688 12.9375 C 64.929688 14.667969 64.929688 16.398438 64.929688 18.183594 C 65.664062 18.164062 66.398438 18.144531 67.152344 18.125 C 69.589844 18.066406 72.023438 18.03125 74.460938 18 C 75.9375 17.984375 77.410156 17.957031 78.886719 17.917969 C 80.3125 17.878906 81.738281 17.859375 83.164062 17.851562 C 83.707031 17.84375 84.25 17.832031 84.789062 17.8125 C 89.027344 17.667969 89.027344 17.667969 90.734375 18.945312 C 91.527344 19.820312 92.199219 20.699219 92.855469 21.679688 C 93.285156 22.195312 93.285156 22.195312 93.722656 22.722656 C 94.039062 23.125 94.039062 23.125 94.359375 23.535156 C 94.574219 23.808594 94.789062 24.082031 95.011719 24.363281 C 95.222656 24.628906 95.429688 24.898438 95.648438 25.175781 C 96.113281 25.757812 96.578125 26.339844 97.042969 26.921875 C 96.535156 28.519531 95.625 29.625 94.535156 30.855469 C 94.210938 31.230469 93.882812 31.601562 93.558594 31.976562 C 93.394531 32.160156 93.230469 32.34375 93.058594 32.53125 C 92.480469 33.207031 92.480469 33.207031 92.070312 34.015625 C 91.484375 35.003906 90.96875 35.652344 90.0625 36.363281 C 88.148438 36.808594 86.28125 36.730469 84.324219 36.671875 C 83.765625 36.664062 83.207031 36.660156 82.644531 36.65625 C 81.175781 36.644531 79.710938 36.613281 78.242188 36.578125 C 76.742188 36.546875 75.242188 36.53125 73.742188 36.515625 C 70.804688 36.484375 67.867188 36.429688 64.929688 36.363281 C 64.929688 37.632812 64.929688 38.902344 64.929688 40.210938 C 66.886719 40.210938 68.84375 40.210938 70.863281 40.210938 C 70.863281 46.210938 70.863281 52.210938 70.863281 58.390625 C 68.90625 58.390625 66.945312 58.390625 64.929688 58.390625 C 64.929688 64.507812 64.929688 70.621094 64.929688 76.921875 C 69.996094 76.921875 75.066406 76.921875 80.289062 76.921875 C 80.289062 79.347656 80.289062 81.769531 80.289062 84.265625 C 67.847656 84.265625 55.40625 84.265625 42.585938 84.265625 C 42.585938 81.84375 42.585938 79.417969 42.585938 76.921875 C 47.65625 76.921875 52.726562 76.921875 57.945312 76.921875 C 57.945312 70.808594 57.945312 64.691406 57.945312 58.390625 C 56.195312 58.433594 54.441406 58.472656 52.636719 58.515625 C 51.519531 58.53125 50.40625 58.550781 49.289062 58.5625 C 47.523438 58.582031 45.753906 58.609375 43.988281 58.65625 C 42.5625 58.695312 41.136719 58.714844 39.710938 58.722656 C 39.167969 58.730469 38.625 58.742188 38.085938 58.761719 C 33.847656 58.902344 33.847656 58.902344 32.144531 57.628906 C 31.347656 56.753906 30.679688 55.875 30.019531 54.894531 C 29.707031 54.511719 29.386719 54.132812 29.0625 53.761719 C 28.816406 53.457031 28.570312 53.152344 28.320312 52.839844 C 28.066406 52.53125 27.816406 52.222656 27.558594 51.902344 C 26.96875 51.160156 26.394531 50.414062 25.832031 49.648438 C 26.410156 48.269531 27.347656 47.226562 28.320312 46.109375 C 28.640625 45.738281 28.960938 45.367188 29.28125 44.992188 C 29.53125 44.710938 29.53125 44.710938 29.785156 44.425781 C 30.398438 43.707031 30.398438 43.707031 30.886719 42.828125 C 31.855469 41.304688 32.578125 40.359375 34.371094 39.902344 C 35.878906 39.804688 37.347656 39.816406 38.855469 39.867188 C 39.410156 39.875 39.960938 39.878906 40.511719 39.882812 C 41.957031 39.898438 43.398438 39.929688 44.84375 39.96875 C 46.320312 40.003906 47.796875 40.019531 49.273438 40.039062 C 52.164062 40.078125 55.054688 40.136719 57.945312 40.210938 C 57.945312 38.941406 57.945312 37.671875 57.945312 36.363281 C 55.988281 36.363281 54.03125 36.363281 52.011719 36.363281 C 52.011719 30.363281 52.011719 24.363281 52.011719 18.183594 C 53.972656 18.183594 55.929688 18.183594 57.945312 18.183594 C 57.945312 16.449219 57.945312 14.71875 57.945312 12.9375 Z M 57.945312 12.9375 "/>
<path style=" stroke:none;fill-rule:nonzero;fill:rgb(0%,0%,0%);fill-opacity:1;" d="M 251.640625 41.5 C 254.734375 43.761719 256.53125 46.988281 257.269531 50.699219 C 257.269531 52.546875 257.269531 54.390625 257.269531 56.292969 C 250.242188 56.292969 243.21875 56.292969 235.976562 56.292969 C 237.023438 58.386719 237.59375 59.324219 239.734375 60.171875 C 241.960938 60.796875 244.410156 60.832031 246.601562 60.074219 C 247.460938 59.496094 247.460938 59.496094 248.011719 58.957031 C 248.542969 58.457031 248.542969 58.457031 249.589844 57.691406 C 251.144531 58.050781 252.398438 58.75 253.734375 59.59375 C 254.074219 59.800781 254.410156 60.011719 254.757812 60.226562 C 255.136719 60.53125 255.136719 60.53125 255.523438 60.839844 C 255.523438 62.214844 255.121094 62.453125 254.171875 63.417969 C 250.878906 66.613281 246.789062 67.867188 242.261719 67.832031 C 237.847656 67.332031 233.742188 66.011719 230.742188 62.585938 C 228.128906 58.804688 227.351562 54.554688 228.121094 50.027344 C 228.996094 46.429688 230.871094 43.605469 233.890625 41.453125 C 239.300781 38.171875 246.25 38.21875 251.640625 41.5 Z M 236.796875 48.359375 C 236.167969 49.058594 236.167969 49.058594 235.976562 50.699219 C 240.238281 50.699219 244.5 50.699219 248.894531 50.699219 C 248.511719 48.785156 248.21875 48.429688 246.796875 47.203125 C 243.214844 44.808594 239.902344 45.761719 236.796875 48.359375 Z M 236.796875 48.359375 "/>
<path style=" stroke:none;fill-rule:nonzero;fill:rgb(0%,0%,0%);fill-opacity:1;" d="M 163.257812 41.707031 C 166.128906 43.84375 167.90625 46.859375 168.605469 50.351562 C 168.605469 52.3125 168.605469 54.273438 168.605469 56.292969 C 161.578125 56.292969 154.550781 56.292969 147.3125 56.292969 C 148.355469 58.386719 148.929688 59.328125 151.070312 60.167969 C 153.410156 60.832031 156.097656 60.941406 158.328125 59.878906 C 159.339844 59.28125 160.160156 58.589844 160.925781 57.691406 C 162.507812 58.164062 163.828125 58.808594 165.246094 59.660156 C 165.613281 59.878906 165.984375 60.101562 166.367188 60.328125 C 166.644531 60.496094 166.921875 60.664062 167.207031 60.839844 C 165.652344 64.085938 163.085938 65.808594 159.769531 67.066406 C 155.320312 68.371094 150.601562 67.941406 146.417969 65.953125 C 143.175781 64.132812 141.238281 61.714844 139.847656 58.238281 C 139.027344 53.546875 138.96875 48.847656 141.726562 44.753906 C 146.945312 38.269531 156.390625 37.320312 163.257812 41.707031 Z M 148.007812 48.601562 C 147.777344 49.292969 147.546875 49.984375 147.3125 50.699219 C 151.6875 50.699219 156.066406 50.699219 160.574219 50.699219 C 159.710938 48.425781 159.710938 48.425781 158.15625 47.070312 C 157.921875 46.902344 157.6875 46.734375 157.445312 46.5625 C 154.183594 44.691406 150.441406 46.105469 148.007812 48.601562 Z M 148.007812 48.601562 "/>
<path style=" stroke:none;fill-rule:nonzero;fill:rgb(0%,0%,0%);fill-opacity:1;" d="M 262.855469 39.511719 C 265.390625 39.511719 267.925781 39.511719 270.535156 39.511719 C 270.546875 40.742188 270.5625 41.976562 270.574219 43.25 C 270.589844 44.449219 270.609375 45.648438 270.628906 46.84375 C 270.640625 47.675781 270.648438 48.507812 270.65625 49.339844 C 270.667969 50.535156 270.6875 51.734375 270.707031 52.929688 C 270.707031 53.300781 270.710938 53.667969 270.714844 54.050781 C 270.757812 56.359375 270.871094 58.382812 272.589844 60.097656 C 274.105469 60.902344 275.898438 61.113281 277.554688 60.621094 C 279.109375 59.824219 279.710938 58.941406 280.308594 57.34375 C 280.46875 55.976562 280.480469 54.613281 280.488281 53.238281 C 280.496094 52.84375 280.5 52.453125 280.507812 52.046875 C 280.527344 50.796875 280.539062 49.546875 280.550781 48.296875 C 280.5625 47.445312 280.574219 46.597656 280.585938 45.746094 C 280.617188 43.667969 280.636719 41.589844 280.660156 39.511719 C 283.191406 39.511719 285.726562 39.511719 288.339844 39.511719 C 288.339844 48.625 288.339844 57.742188 288.339844 67.132812 C 285.804688 67.132812 283.269531 67.132812 280.660156 67.132812 C 280.542969 66.554688 280.429688 65.980469 280.308594 65.382812 C 280.121094 65.507812 279.929688 65.628906 279.734375 65.753906 C 279.484375 65.914062 279.238281 66.074219 278.980469 66.238281 C 278.730469 66.394531 278.484375 66.554688 278.230469 66.714844 C 275.859375 68.101562 272.050781 67.84375 269.429688 67.21875 C 266.804688 66.203125 265.074219 64.851562 263.902344 62.238281 C 262.847656 59.550781 262.714844 57.058594 262.753906 54.191406 C 262.753906 53.769531 262.757812 53.347656 262.757812 52.914062 C 262.765625 51.578125 262.777344 50.242188 262.789062 48.90625 C 262.796875 47.996094 262.800781 47.085938 262.804688 46.175781 C 262.816406 43.953125 262.835938 41.730469 262.855469 39.511719 Z M 262.855469 39.511719 "/>
<path style=" stroke:none;fill-rule:nonzero;fill:rgb(0%,0%,0%);fill-opacity:1;" d="M 129.855469 40.210938 C 130.109375 40.316406 130.363281 40.421875 130.625 40.53125 C 132.304688 41.292969 132.984375 41.941406 134.394531 43.355469 C 133.128906 44.972656 131.859375 46.585938 130.554688 48.25 C 129.207031 47.800781 127.921875 47.335938 126.605469 46.808594 C 124.445312 46.019531 122.613281 45.78125 120.410156 46.503906 C 120.1875 46.617188 119.964844 46.734375 119.734375 46.851562 C 119.734375 47.429688 119.734375 48.007812 119.734375 48.601562 C 120.285156 48.726562 120.285156 48.726562 120.847656 48.859375 C 122.183594 49.167969 123.515625 49.484375 124.851562 49.804688 C 125.609375 49.984375 126.371094 50.160156 127.128906 50.332031 C 130.023438 51.027344 132.277344 51.714844 134.171875 54.09375 C 135.566406 56.371094 135.386719 59.117188 134.953125 61.667969 C 134.257812 64.003906 132.503906 65.328125 130.488281 66.546875 C 126.367188 68.4375 120.355469 68.074219 116.191406 66.53125 C 112.75 64.984375 112.75 64.984375 111.355469 63.984375 C 111.242188 63.640625 111.125 63.292969 111.007812 62.9375 C 111.554688 62.054688 112.109375 61.25 112.730469 60.425781 C 112.984375 60.082031 112.984375 60.082031 113.238281 59.730469 C 113.65625 59.164062 114.078125 58.601562 114.496094 58.042969 C 116.171875 58.4375 117.722656 59.097656 119.316406 59.734375 C 120.816406 60.28125 122.179688 60.542969 123.769531 60.554688 C 124.03125 60.558594 124.289062 60.566406 124.558594 60.570312 C 125.429688 60.476562 125.980469 60.269531 126.714844 59.789062 C 127 58.898438 127 58.898438 127.066406 58.042969 C 125.050781 57.226562 123.128906 56.730469 121 56.335938 C 117.746094 55.6875 114.566406 54.917969 112.445312 52.148438 C 111.253906 49.871094 111.09375 47.195312 111.789062 44.742188 C 112.628906 42.574219 114.039062 41.109375 116.125 40.117188 C 120.4375 38.679688 125.621094 38.335938 129.855469 40.210938 Z M 129.855469 40.210938 "/>
<path style=" stroke:none;fill-rule:nonzero;fill:rgb(0%,0%,0%);fill-opacity:1;" d="M 196.53125 31.816406 C 198.949219 31.816406 201.371094 31.816406 203.863281 31.816406 C 203.863281 34.242188 203.863281 36.664062 203.863281 39.160156 C 205.703125 39.160156 207.546875 39.160156 209.445312 39.160156 C 209.445312 41.351562 209.445312 43.546875 209.445312 45.804688 C 207.605469 45.804688 205.761719 45.804688 203.863281 45.804688 C 203.894531 47.394531 203.933594 48.988281 203.972656 50.582031 C 203.984375 51.121094 203.996094 51.660156 204.007812 52.203125 C 204.023438 52.984375 204.046875 53.765625 204.066406 54.546875 C 204.070312 54.785156 204.074219 55.019531 204.078125 55.265625 C 204.128906 56.996094 204.386719 58.5 204.910156 60.140625 C 206.390625 60.949219 207.359375 60.839844 209.097656 60.839844 C 209.097656 63.03125 209.097656 65.222656 209.097656 67.484375 C 205.574219 68.1875 202.226562 67.910156 198.84375 66.71875 C 197.644531 65.890625 197.03125 64.984375 196.53125 63.636719 C 196.347656 62.253906 196.367188 60.890625 196.394531 59.496094 C 196.398438 59.105469 196.398438 58.710938 196.402344 58.308594 C 196.410156 57.0625 196.425781 55.8125 196.445312 54.566406 C 196.449219 53.71875 196.457031 52.871094 196.464844 52.023438 C 196.476562 49.949219 196.503906 47.878906 196.53125 45.804688 C 195.378906 45.804688 194.226562 45.804688 193.039062 45.804688 C 193.039062 43.613281 193.039062 41.417969 193.039062 39.160156 C 194.191406 39.160156 195.34375 39.160156 196.53125 39.160156 C 196.53125 36.738281 196.53125 34.316406 196.53125 31.816406 Z M 196.53125 31.816406 "/>
<path style=" stroke:none;fill-rule:nonzero;fill:rgb(0%,0%,0%);fill-opacity:1;" d="M 176.285156 31.816406 C 178.703125 31.816406 181.121094 31.816406 183.613281 31.816406 C 183.613281 34.242188 183.613281 36.664062 183.613281 39.160156 C 185.457031 39.160156 187.300781 39.160156 189.199219 39.160156 C 189.199219 41.351562 189.199219 43.546875 189.199219 45.804688 C 187.355469 45.804688 185.515625 45.804688 183.613281 45.804688 C 183.640625 47.390625 183.671875 48.976562 183.707031 50.5625 C 183.71875 51.097656 183.726562 51.636719 183.734375 52.175781 C 183.78125 55.101562 183.851562 57.75 185.011719 60.488281 C 186.277344 60.605469 187.546875 60.71875 188.851562 60.839844 C 188.851562 63.03125 188.851562 65.222656 188.851562 67.484375 C 185.367188 68.0625 181.8125 68.191406 178.597656 66.519531 C 177.289062 65.398438 176.402344 64.492188 176.164062 62.757812 C 176.121094 61.679688 176.128906 60.609375 176.148438 59.53125 C 176.152344 58.941406 176.152344 58.941406 176.152344 58.339844 C 176.160156 57.089844 176.179688 55.839844 176.199219 54.589844 C 176.203125 53.738281 176.210938 52.890625 176.214844 52.039062 C 176.230469 49.960938 176.253906 47.882812 176.285156 45.804688 C 175.132812 45.804688 173.980469 45.804688 172.792969 45.804688 C 172.792969 43.613281 172.792969 41.417969 172.792969 39.160156 C 173.945312 39.160156 175.097656 39.160156 176.285156 39.160156 C 176.285156 36.738281 176.285156 34.316406 176.285156 31.816406 Z M 176.285156 31.816406 "/>
<path style=" stroke:none;fill-rule:nonzero;fill:rgb(0%,0%,0%);fill-opacity:1;" d="M 214.683594 29.371094 C 217.332031 29.371094 219.980469 29.371094 222.710938 29.371094 C 222.71875 34.242188 222.726562 39.113281 222.730469 43.988281 C 222.730469 46.25 222.734375 48.511719 222.738281 50.773438 C 222.742188 52.953125 222.746094 55.132812 222.746094 57.316406 C 222.746094 58.148438 222.746094 58.984375 222.75 59.816406 C 222.75 60.980469 222.75 62.144531 222.75 63.308594 C 222.753906 63.65625 222.753906 64.007812 222.753906 64.367188 C 222.753906 64.679688 222.753906 64.996094 222.753906 65.320312 C 222.753906 65.597656 222.753906 65.871094 222.753906 66.15625 C 222.710938 66.785156 222.710938 66.785156 222.363281 67.132812 C 221.820312 67.167969 221.28125 67.179688 220.738281 67.179688 C 220.246094 67.179688 220.246094 67.179688 219.742188 67.179688 C 219.226562 67.179688 219.226562 67.179688 218.699219 67.175781 C 218.351562 67.179688 218.007812 67.179688 217.652344 67.179688 C 217.324219 67.179688 216.996094 67.179688 216.65625 67.179688 C 216.355469 67.179688 216.050781 67.179688 215.738281 67.179688 C 215.03125 67.132812 215.03125 67.132812 214.683594 66.785156 C 214.648438 66.296875 214.640625 65.808594 214.640625 65.320312 C 214.640625 65.003906 214.640625 64.691406 214.640625 64.367188 C 214.640625 64.015625 214.640625 63.667969 214.644531 63.308594 C 214.644531 62.945312 214.644531 62.578125 214.644531 62.203125 C 214.644531 60.992188 214.644531 59.777344 214.648438 58.566406 C 214.648438 57.726562 214.648438 56.886719 214.652344 56.050781 C 214.652344 53.839844 214.65625 51.628906 214.660156 49.417969 C 214.664062 47.160156 214.664062 44.90625 214.667969 42.652344 C 214.667969 38.226562 214.675781 33.796875 214.683594 29.371094 Z M 214.683594 29.371094 "/>
</g>
</svg>
