<?xml version="1.0" encoding="UTF-8"?>
<svg xmlns="http://www.w3.org/2000/svg" xmlns:xlink="http://www.w3.org/1999/xlink" width="64px" height="64px" viewBox="0 0 64 64" version="1.1">
<g id="surface1">
<path style=" stroke:none;fill-rule:nonzero;fill:rgb(0.392157%,0.392157%,0%);fill-opacity:1;" d="M 18.53125 6.984375 C 18.816406 6.984375 19.109375 6.980469 19.402344 6.976562 C 20.355469 6.96875 21.308594 6.96875 22.261719 6.960938 C 22.585938 6.960938 22.914062 6.960938 23.25 6.960938 C 24.976562 6.953125 26.707031 6.949219 28.433594 6.945312 C 30.210938 6.941406 31.992188 6.929688 33.773438 6.917969 C 35.144531 6.910156 36.515625 6.90625 37.890625 6.90625 C 38.546875 6.90625 39.199219 6.898438 39.859375 6.894531 C 44.871094 6.851562 48.699219 7.195312 52.449219 10.828125 C 54.945312 13.488281 55.726562 16.234375 55.738281 19.808594 C 55.738281 20.097656 55.738281 20.386719 55.742188 20.683594 C 55.75 21.636719 55.753906 22.585938 55.753906 23.539062 C 55.757812 23.867188 55.761719 24.195312 55.761719 24.53125 C 55.765625 26.257812 55.773438 27.988281 55.773438 29.714844 C 55.777344 31.492188 55.789062 33.273438 55.800781 35.050781 C 55.808594 36.425781 55.8125 37.796875 55.816406 39.171875 C 55.816406 39.824219 55.820312 40.480469 55.824219 41.136719 C 55.863281 45.945312 55.65625 49.789062 52.160156 53.441406 C 49.375 55.984375 46.363281 57.003906 42.648438 57.015625 C 42.367188 57.015625 42.085938 57.019531 41.796875 57.023438 C 40.863281 57.03125 39.929688 57.03125 38.996094 57.035156 C 38.519531 57.039062 38.519531 57.039062 38.03125 57.039062 C 36.339844 57.046875 34.648438 57.050781 32.957031 57.054688 C 31.21875 57.058594 29.476562 57.070312 27.738281 57.082031 C 26.394531 57.089844 25.050781 57.09375 23.707031 57.09375 C 23.066406 57.09375 22.425781 57.101562 21.785156 57.105469 C 17.183594 57.144531 13.265625 56.878906 9.601562 53.761719 C 6.859375 50.882812 5.710938 47.839844 5.707031 43.921875 C 5.707031 43.640625 5.703125 43.359375 5.703125 43.066406 C 5.699219 42.136719 5.699219 41.199219 5.695312 40.265625 C 5.691406 39.617188 5.691406 38.96875 5.691406 38.316406 C 5.683594 36.949219 5.683594 35.585938 5.683594 34.21875 C 5.683594 32.476562 5.671875 30.734375 5.664062 28.992188 C 5.65625 27.648438 5.65625 26.300781 5.65625 24.957031 C 5.65625 24.316406 5.652344 23.671875 5.648438 23.03125 C 5.640625 22.128906 5.644531 21.226562 5.644531 20.324219 C 5.640625 20.0625 5.640625 19.800781 5.636719 19.53125 C 5.664062 15.859375 7.003906 12.984375 9.488281 10.308594 C 12.128906 7.871094 15.023438 6.996094 18.53125 6.984375 Z M 18.53125 6.984375 "/>
<path style=" stroke:none;fill-rule:nonzero;fill:rgb(94.117647%,73.333335%,12.54902%);fill-opacity:1;" d="M 28.160156 19.839844 C 28.476562 19.839844 28.792969 19.839844 29.121094 19.839844 C 29.136719 20.511719 29.148438 21.1875 29.160156 21.859375 C 29.167969 22.234375 29.175781 22.609375 29.183594 22.996094 C 29.121094 24 29.121094 24 28.480469 24.960938 C 29.359375 24.636719 29.699219 24.441406 30.140625 23.601562 C 30.414062 22.671875 30.585938 21.761719 30.71875 20.800781 C 30.929688 20.800781 31.140625 20.800781 31.359375 20.800781 C 31.308594 22.949219 30.992188 24.085938 29.441406 25.601562 C 28.574219 26.03125 27.835938 25.941406 26.878906 25.921875 C 26.984375 26.085938 27.089844 26.25 27.199219 26.421875 C 27.71875 27.675781 27.742188 28.804688 27.289062 30.097656 C 26.398438 32.003906 25.113281 33.390625 23.359375 34.558594 C 21.96875 35.023438 20.652344 35.085938 19.199219 34.878906 C 18.148438 34.09375 17.367188 33.257812 16.960938 32 C 16.675781 29.933594 17.335938 28.496094 18.558594 26.878906 C 20.25 25.304688 21.585938 24.589844 23.9375 24.605469 C 24.648438 24.640625 25.320312 24.742188 26.019531 24.859375 C 27.160156 25.078125 27.160156 25.078125 27.820312 24.539062 C 28.585938 23.324219 28.574219 22.207031 28.480469 20.800781 C 28.324219 20.324219 28.324219 20.324219 28.160156 19.839844 Z M 28.160156 19.839844 "/>
<path style=" stroke:none;fill-rule:nonzero;fill:rgb(93.333334%,72.941178%,12.941177%);fill-opacity:1;" d="M 41.667969 26.449219 C 42.839844 27.332031 43.824219 28.445312 44.480469 29.761719 C 44.527344 30.484375 44.550781 31.210938 44.558594 31.941406 C 44.566406 32.332031 44.578125 32.722656 44.585938 33.125 C 44.472656 34.328125 44.214844 34.871094 43.519531 35.839844 C 43.378906 36.050781 43.242188 36.265625 43.101562 36.484375 C 42.96875 36.675781 42.835938 36.863281 42.699219 37.058594 C 42.566406 37.253906 42.433594 37.449219 42.300781 37.644531 C 42.175781 37.789062 42.050781 37.933594 41.921875 38.078125 C 41.710938 38.078125 41.496094 38.078125 41.28125 38.078125 C 41.191406 37.464844 41.191406 37.464844 41.101562 36.839844 C 40.523438 34.308594 39.046875 32.339844 36.921875 30.878906 C 35.335938 29.894531 33.925781 29.375 32.058594 29.238281 C 31.746094 29.214844 31.433594 29.191406 31.113281 29.167969 C 30.878906 29.152344 30.640625 29.136719 30.398438 29.121094 C 33.183594 25.980469 37.765625 24.210938 41.667969 26.449219 Z M 41.667969 26.449219 "/>
<path style=" stroke:none;fill-rule:nonzero;fill:rgb(89.411765%,69.411767%,12.941177%);fill-opacity:1;" d="M 40.359375 22.261719 C 41.691406 22.996094 42.691406 24.007812 43.519531 25.28125 C 43.519531 25.488281 43.519531 25.703125 43.519531 25.921875 C 43.339844 25.851562 43.164062 25.78125 42.976562 25.710938 C 39.953125 24.660156 36.617188 24.421875 33.59375 25.601562 C 32.539062 26.132812 31.648438 26.789062 30.71875 27.519531 C 31.347656 25.289062 33.082031 23.578125 35.019531 22.398438 C 36.886719 21.46875 38.417969 21.414062 40.359375 22.261719 Z M 40.359375 22.261719 "/>
<path style=" stroke:none;fill-rule:nonzero;fill:rgb(90.196079%,72.941178%,14.901961%);fill-opacity:1;" d="M 36.800781 33.601562 C 37.589844 33.96875 38.09375 34.253906 38.71875 34.878906 C 38.550781 37.453125 35.136719 40.28125 33.28125 41.921875 C 31.976562 42.914062 31.976562 42.914062 30.78125 42.78125 C 30.550781 42.707031 30.316406 42.636719 30.078125 42.558594 C 30.078125 42.136719 30.078125 41.714844 30.078125 41.28125 C 30.699219 40.683594 30.699219 40.683594 31.539062 40.078125 C 33.957031 38.234375 35.558594 36.378906 36.800781 33.601562 Z M 36.800781 33.601562 "/>
<path style=" stroke:none;fill-rule:nonzero;fill:rgb(89.411765%,72.549021%,14.901961%);fill-opacity:1;" d="M 33.28125 31.039062 C 34.800781 31.320312 34.800781 31.320312 35.519531 31.679688 C 35.050781 34.515625 31.835938 37.226562 29.761719 39.039062 C 29.121094 39.453125 28.550781 39.726562 27.839844 40 C 27.628906 39.789062 27.417969 39.578125 27.199219 39.359375 C 27.242188 38.414062 27.511719 38.089844 28.183594 37.414062 C 28.460938 37.183594 28.734375 36.957031 29.019531 36.71875 C 30.871094 35.109375 32.53125 33.433594 33.28125 31.039062 Z M 33.28125 31.039062 "/>
<path style=" stroke:none;fill-rule:nonzero;fill:rgb(88.627452%,71.764708%,14.509805%);fill-opacity:1;" d="M 28.800781 30.078125 C 29.75 30.078125 30.699219 30.078125 31.679688 30.078125 C 31.039062 31.363281 30.269531 32.269531 29.300781 33.300781 C 29.140625 33.46875 28.984375 33.636719 28.824219 33.8125 C 28.390625 34.277344 27.957031 34.738281 27.519531 35.199219 C 27.335938 35.398438 27.15625 35.59375 26.96875 35.800781 C 26.558594 36.160156 26.558594 36.160156 25.921875 36.160156 C 25.726562 35.085938 25.792969 34.433594 26.394531 33.515625 C 26.792969 33.019531 27.195312 32.53125 27.609375 32.046875 C 28.242188 31.304688 28.242188 31.304688 28.800781 30.078125 Z M 28.800781 30.078125 "/>
<path style=" stroke:none;fill-rule:nonzero;fill:rgb(86.274511%,71.372551%,16.862746%);fill-opacity:1;" d="M 39.359375 38.078125 C 39.570312 38.078125 39.78125 38.078125 40 38.078125 C 40.136719 39.066406 40.222656 39.6875 40 40.640625 C 39.40625 41.316406 38.785156 41.824219 38.0625 42.355469 C 37.402344 42.914062 37.128906 43.371094 36.800781 44.160156 C 35.953125 44.160156 35.109375 44.160156 34.238281 44.160156 C 34.445312 43.960938 34.648438 43.765625 34.859375 43.558594 C 35.710938 42.707031 36.527344 41.828125 37.339844 40.941406 C 37.585938 40.671875 37.828125 40.40625 38.085938 40.128906 C 38.640625 39.457031 39.015625 38.875 39.359375 38.078125 Z M 39.359375 38.078125 "/>
<path style=" stroke:none;fill-rule:nonzero;fill:rgb(14.509805%,10.588235%,3.137255%);fill-opacity:1;" d="M 40.320312 24.640625 C 40.320312 24.746094 40.320312 24.851562 40.320312 24.960938 C 38.261719 25.117188 38.261719 25.117188 36.160156 25.28125 C 36.160156 25.488281 36.160156 25.703125 36.160156 25.921875 C 35.851562 26.039062 35.851562 26.039062 35.539062 26.15625 C 33.839844 26.8125 32.277344 27.53125 30.71875 28.480469 C 30.613281 28.058594 30.511719 27.636719 30.398438 27.199219 C 30.574219 27.121094 30.742188 27.042969 30.921875 26.960938 C 31.726562 26.558594 31.726562 26.558594 32.578125 25.921875 C 35.0625 24.363281 37.460938 24.566406 40.320312 24.640625 Z M 40.320312 24.640625 "/>
<path style=" stroke:none;fill-rule:nonzero;fill:rgb(58.039218%,46.666667%,15.686275%);fill-opacity:1;" d="M 28.160156 19.839844 C 28.476562 19.839844 28.792969 19.839844 29.121094 19.839844 C 29.136719 20.511719 29.148438 21.1875 29.160156 21.859375 C 29.167969 22.234375 29.175781 22.609375 29.183594 22.996094 C 29.121094 24 29.121094 24 28.480469 24.960938 C 29.359375 24.636719 29.699219 24.441406 30.140625 23.601562 C 30.414062 22.671875 30.585938 21.761719 30.71875 20.800781 C 30.929688 20.800781 31.140625 20.800781 31.359375 20.800781 C 31.308594 22.949219 30.992188 24.085938 29.441406 25.601562 C 28.574219 26.03125 27.835938 25.941406 26.878906 25.921875 C 26.773438 26.128906 26.671875 26.34375 26.558594 26.558594 C 26.351562 26.136719 26.136719 25.714844 25.921875 25.28125 C 26.222656 25.199219 26.527344 25.121094 26.839844 25.039062 C 27.828125 24.734375 27.828125 24.734375 28.28125 24.121094 C 28.660156 22.675781 28.636719 21.261719 28.160156 19.839844 Z M 28.160156 19.839844 "/>
<path style=" stroke:none;fill-rule:nonzero;fill:rgb(11.372549%,7.843138%,2.352941%);fill-opacity:1;" d="M 33.601562 25.921875 C 33.601562 26.238281 33.601562 26.550781 33.601562 26.878906 C 32.648438 27.40625 31.699219 27.933594 30.71875 28.480469 C 30.613281 28.058594 30.511719 27.636719 30.398438 27.199219 C 30.6875 27.0625 30.6875 27.0625 30.980469 26.921875 C 32.925781 25.921875 32.925781 25.921875 33.601562 25.921875 Z M 33.601562 25.921875 "/>
<path style=" stroke:none;fill-rule:nonzero;fill:rgb(89.803922%,74.509805%,16.470589%);fill-opacity:1;" d="M 37.121094 41.921875 C 37.441406 42.878906 37.441406 42.878906 37.140625 43.578125 C 37.027344 43.773438 36.914062 43.960938 36.800781 44.160156 C 35.953125 44.160156 35.109375 44.160156 34.238281 44.160156 C 35.121094 43.210938 35.988281 42.546875 37.121094 41.921875 Z M 37.121094 41.921875 "/>
<path style=" stroke:none;fill-rule:nonzero;fill:rgb(70.19608%,55.686277%,15.294118%);fill-opacity:1;" d="M 41.921875 23.679688 C 42.46875 24.199219 43 24.734375 43.519531 25.28125 C 43.519531 25.488281 43.519531 25.703125 43.519531 25.921875 C 42.464844 25.601562 41.40625 25.289062 40.320312 24.960938 C 40.320312 24.855469 40.320312 24.75 40.320312 24.640625 C 40.847656 24.535156 41.375 24.429688 41.921875 24.320312 C 41.921875 24.109375 41.921875 23.898438 41.921875 23.679688 Z M 41.921875 23.679688 "/>
<path style=" stroke:none;fill-rule:nonzero;fill:rgb(14.117648%,9.803922%,3.137255%);fill-opacity:1;" d="M 22.078125 26.878906 C 22.609375 26.878906 23.136719 26.878906 23.679688 26.878906 C 23.679688 27.300781 23.679688 27.726562 23.679688 28.160156 C 23.152344 28.160156 22.625 28.160156 22.078125 28.160156 C 22.078125 27.738281 22.078125 27.316406 22.078125 26.878906 Z M 22.078125 26.878906 "/>
<path style=" stroke:none;fill-rule:nonzero;fill:rgb(84.705883%,70.588237%,19.215687%);fill-opacity:1;" d="M 39.359375 42.238281 C 39.570312 42.238281 39.78125 42.238281 40 42.238281 C 40 42.765625 40 43.296875 40 43.839844 C 39.472656 43.839844 38.945312 43.839844 38.398438 43.839844 C 38.839844 43.039062 38.839844 43.039062 39.359375 42.238281 Z M 39.359375 42.238281 "/>
</g>
</svg>
